if (_typeface_js && _typeface_js.loadFace) _typeface_js.loadFace({"glyphs":{"0":{"ha":1032,"x_min":90,"x_max":944,"o":"m 944 515 l 765 585 l 765 860 l 854 919 l 944 860 l 944 515 m 828 939 l 736 881 l 300 881 l 208 939 l 300 1000 l 736 1000 l 828 939 m 944 140 l 854 81 l 765 140 l 765 425 l 944 485 l 944 140 m 269 585 l 90 515 l 90 860 l 179 919 l 269 860 l 269 585 m 269 140 l 179 81 l 90 140 l 90 485 l 269 425 l 269 140 m 828 61 l 736 0 l 300 0 l 208 61 l 300 119 l 736 119 l 828 61 z "},"1":{"ha":1032,"x_min":428,"x_max":607,"o":"m 607 515 l 428 585 l 428 881 l 607 1000 l 607 515 m 607 0 l 428 119 l 428 425 l 607 485 l 607 0 z "},"2":{"ha":1032,"x_min":90,"x_max":944,"o":"m 944 515 l 765 585 l 765 860 l 854 919 l 944 860 l 944 515 m 828 939 l 736 881 l 90 881 l 300 1000 l 736 1000 l 828 939 m 904 500 l 736 444 l 300 444 l 132 500 l 300 565 l 736 565 l 904 500 m 944 0 l 300 0 l 208 61 l 300 119 l 774 119 l 944 0 m 269 140 l 179 81 l 90 140 l 90 485 l 269 425 l 269 140 z "},"3":{"ha":1032,"x_min":53,"x_max":869,"o":"m 869 515 l 690 585 l 690 860 l 779 919 l 869 860 l 869 515 m 753 939 l 661 881 l 225 881 l 53 1000 l 661 1000 l 753 939 m 869 140 l 779 81 l 690 140 l 690 425 l 869 485 l 869 140 m 829 500 l 661 444 l 225 444 l 57 500 l 225 565 l 661 565 l 829 500 m 753 61 l 661 0 l 53 0 l 225 119 l 661 119 l 753 61 z "},"4":{"ha":1032,"x_min":90,"x_max":944,"o":"m 944 515 l 765 585 l 765 881 l 944 1000 l 944 515 m 269 585 l 90 515 l 90 1000 l 269 881 l 269 585 m 904 500 l 736 444 l 300 444 l 132 500 l 300 565 l 736 565 l 904 500 m 944 0 l 765 119 l 765 425 l 944 485 l 944 0 z "},"5":{"ha":1032,"x_min":90,"x_max":944,"o":"m 907 1000 l 736 881 l 300 881 l 208 939 l 300 1000 l 907 1000 m 944 140 l 854 81 l 765 140 l 765 425 l 944 485 l 944 140 m 904 500 l 736 444 l 300 444 l 132 500 l 300 565 l 736 565 l 904 500 m 269 585 l 90 515 l 90 860 l 179 919 l 269 860 l 269 585 m 828 61 l 736 0 l 90 0 l 263 119 l 736 119 l 828 61 z "},"6":{"ha":1032,"x_min":90,"x_max":944,"o":"m 907 1000 l 736 881 l 300 881 l 208 939 l 300 1000 l 907 1000 m 944 140 l 854 81 l 765 140 l 765 425 l 944 485 l 944 140 m 904 500 l 736 444 l 300 444 l 132 500 l 300 565 l 736 565 l 904 500 m 269 585 l 90 515 l 90 860 l 179 919 l 269 860 l 269 585 m 269 140 l 179 81 l 90 140 l 90 485 l 269 425 l 269 140 m 828 61 l 736 0 l 300 0 l 208 61 l 300 119 l 736 119 l 828 61 z "},"7":{"ha":1032,"x_min":0,"x_max":825,"o":"m 825 515 l 646 585 l 646 860 l 825 981 l 825 515 m 796 1000 l 615 881 l 179 881 l 0 1000 l 796 1000 m 825 0 l 646 119 l 646 425 l 825 485 l 825 0 z "},"8":{"ha":1032,"x_min":90,"x_max":944,"o":"m 944 515 l 765 585 l 765 860 l 854 919 l 944 860 l 944 515 m 828 939 l 736 881 l 300 881 l 208 939 l 300 1000 l 736 1000 l 828 939 m 944 140 l 854 81 l 765 140 l 765 425 l 944 485 l 944 140 m 904 500 l 736 444 l 300 444 l 132 500 l 300 565 l 736 565 l 904 500 m 269 585 l 90 515 l 90 860 l 179 919 l 269 860 l 269 585 m 269 140 l 179 81 l 90 140 l 90 485 l 269 425 l 269 140 m 828 61 l 736 0 l 300 0 l 208 61 l 300 119 l 736 119 l 828 61 z "},"9":{"ha":1032,"x_min":90,"x_max":944,"o":"m 944 515 l 765 575 l 765 860 l 854 919 l 944 860 l 944 515 m 828 939 l 736 881 l 300 881 l 208 939 l 300 1000 l 736 1000 l 828 939 m 944 140 l 854 81 l 765 140 l 765 415 l 944 485 l 944 140 m 904 500 l 736 444 l 300 444 l 132 500 l 300 565 l 736 565 l 904 500 m 269 575 l 90 515 l 90 860 l 179 919 l 269 860 l 269 575 m 828 61 l 736 0 l 128 0 l 300 119 l 736 119 l 828 61 z "},"Ł":{"ha":0,"x_min":0,"x_max":0,"o":""}," ":{"ha":604,"x_min":0,"x_max":0,"o":""},"!":{"ha":354,"x_min":90,"x_max":269,"o":"m 269 294 l 90 385 l 90 881 l 269 1000 l 269 294 m 269 0 l 90 0 l 90 215 l 269 215 l 269 0 z "},"\"":{"ha":596,"x_min":104,"x_max":494,"o":"m 494 1000 l 453 688 l 321 688 l 363 1000 l 494 1000 m 278 1000 l 236 688 l 104 688 l 146 1000 l 278 1000 z "},"#":{"ha":1215,"x_min":104,"x_max":1113,"o":"m 1113 682 l 1092 619 l 853 619 l 778 381 l 1017 381 l 996 318 l 757 318 l 663 22 l 569 22 l 663 318 l 438 318 l 344 22 l 250 22 l 344 318 l 104 318 l 125 381 l 365 381 l 440 619 l 200 619 l 219 682 l 461 682 l 553 978 l 646 978 l 554 682 l 779 682 l 871 978 l 965 978 l 874 682 l 1113 682 m 758 619 l 533 619 l 458 381 l 683 381 l 758 619 z "},"$":{"ha":1032,"x_min":90,"x_max":944,"o":"m 613 1022 l 519 965 l 433 1022 l 433 1114 l 521 1174 l 613 1118 l 613 1022 m 858 1000 l 788 881 l 303 881 l 217 942 l 303 1000 l 419 1000 l 521 932 l 628 1000 l 858 1000 m 944 140 l 854 81 l 765 140 l 765 425 l 944 485 l 944 140 m 904 500 l 736 444 l 300 444 l 132 500 l 300 565 l 736 565 l 904 500 m 269 585 l 90 515 l 90 860 l 179 919 l 269 860 l 269 585 m 829 63 l 742 0 l 633 0 l 521 65 l 419 0 l 104 0 l 300 119 l 740 119 l 829 63 m 613 -117 l 524 -167 l 432 -110 l 432 -15 l 521 33 l 613 -17 l 613 -117 z "},"%":{"ha":1892,"x_min":46,"x_max":1849,"o":"m 1507 1000 l 1028 474 l 928 594 l 1296 1000 l 1507 1000 m 1849 144 l 1757 85 l 1669 144 l 1669 379 l 1754 440 l 1849 381 l 1849 144 m 1728 457 l 1636 392 l 1279 392 l 1188 456 l 1279 513 l 1638 513 l 1728 457 m 707 938 l 617 881 l 258 881 l 169 938 l 258 1000 l 619 1000 l 707 938 m 828 626 l 736 565 l 649 625 l 649 861 l 736 921 l 828 863 l 828 626 m 1253 143 l 1161 83 l 1067 144 l 1067 379 l 1161 439 l 1253 379 l 1253 143 m 1728 63 l 1638 0 l 1278 0 l 1188 63 l 1279 119 l 1636 119 l 1728 63 m 707 544 l 617 490 l 258 490 l 167 544 l 261 608 l 617 608 l 707 544 m 232 625 l 140 565 l 46 625 l 46 861 l 140 919 l 232 860 l 232 625 m 1003 444 l 599 0 l 388 0 l 794 444 l 1003 444 z "},"&":{"ha":1196,"x_min":90,"x_max":1244,"o":"m 828 939 l 736 881 l 300 881 l 208 939 l 300 1000 l 736 1000 l 828 939 m 953 583 l 858 518 l 771 585 l 771 711 l 861 774 l 953 711 l 953 583 m 1244 500 l 1094 444 l 982 444 l 890 499 l 986 565 l 1071 565 l 1244 500 m 832 500 l 740 444 l 586 444 l 407 501 l 558 565 l 740 565 l 832 500 m 950 139 l 857 82 l 769 140 l 769 424 l 858 479 l 950 422 l 950 139 m 269 585 l 90 515 l 90 860 l 179 919 l 269 860 l 269 585 m 269 140 l 179 81 l 90 140 l 90 485 l 269 425 l 269 140 m 828 61 l 736 0 l 300 0 l 208 61 l 300 119 l 736 119 l 828 61 z "},"'":{"ha":379,"x_min":104,"x_max":278,"o":"m 278 1000 l 236 688 l 104 688 l 146 1000 l 278 1000 z "},"(":{"ha":558,"x_min":90,"x_max":532,"o":"m 532 1000 l 399 881 l 300 881 l 208 939 l 300 1000 l 532 1000 m 269 585 l 90 515 l 90 860 l 179 919 l 269 860 l 269 585 m 269 140 l 179 81 l 90 140 l 90 485 l 269 425 l 269 140 m 532 0 l 300 0 l 208 61 l 300 119 l 399 119 l 532 0 z "},")":{"ha":558,"x_min":29,"x_max":471,"o":"m 354 939 l 263 881 l 165 881 l 29 1000 l 263 1000 l 354 939 m 471 515 l 292 575 l 292 860 l 382 919 l 471 860 l 471 515 m 471 140 l 382 81 l 292 140 l 292 415 l 471 485 l 471 140 m 354 61 l 263 0 l 29 0 l 165 119 l 263 119 l 354 61 z "},"*":{"ha":833,"x_min":46,"x_max":792,"o":"m 513 810 l 421 765 l 329 813 l 329 993 l 421 1039 l 513 992 l 513 810 m 792 614 l 700 578 l 442 674 l 442 744 l 528 778 l 778 686 l 792 614 m 394 675 l 150 578 l 46 607 l 58 683 l 313 782 l 394 742 l 394 675 z "},"+":{"ha":1033,"x_min":88,"x_max":949,"o":"m 949 560 l 867 440 l 636 440 l 554 500 l 642 560 l 949 560 m 604 581 l 517 519 l 424 582 l 424 731 l 604 785 l 604 581 m 490 501 l 394 440 l 88 440 l 171 560 l 396 560 l 490 501 m 604 271 l 425 217 l 425 419 l 517 481 l 604 419 l 604 271 z "},",":{"ha":299,"x_min":-29,"x_max":254,"o":"m 254 215 l 157 -131 l -29 -131 l 69 215 l 254 215 z "},"-":{"ha":713,"x_min":46,"x_max":669,"o":"m 669 419 l 549 300 l 46 300 l 167 419 l 669 419 z "},".":{"ha":269,"x_min":46,"x_max":225,"o":"m 225 0 l 46 0 l 46 215 l 225 215 l 225 0 z "},"/":{"ha":1208,"x_min":46,"x_max":1165,"o":"m 1165 1000 l 686 474 l 583 594 l 953 1000 l 1165 1000 m 658 444 l 257 0 l 46 0 l 450 444 l 658 444 z "},":":{"ha":283,"x_min":61,"x_max":240,"o":"m 240 444 l 61 444 l 61 650 l 240 650 l 240 444 m 240 0 l 61 0 l 61 215 l 240 215 l 240 0 z "},";":{"ha":299,"x_min":-29,"x_max":254,"o":"m 246 444 l 67 444 l 67 650 l 246 650 l 246 444 m 254 215 l 157 -131 l -29 -131 l 69 215 l 254 215 z "},"<":{"ha":1083,"x_min":104,"x_max":982,"o":"m 982 169 l 104 500 l 982 831 l 982 732 l 350 500 l 982 268 l 982 169 z "},"=":{"ha":1032,"x_min":90,"x_max":944,"o":"m 944 657 l 857 538 l 90 538 l 178 657 l 944 657 m 944 467 l 857 346 l 90 346 l 178 467 l 944 467 z "},">":{"ha":1083,"x_min":104,"x_max":982,"o":"m 982 500 l 104 169 l 104 268 l 736 500 l 104 732 l 104 831 l 982 500 z "},"?":{"ha":871,"x_min":46,"x_max":783,"o":"m 665 939 l 574 881 l 138 881 l 46 939 l 138 1000 l 574 1000 l 665 939 m 783 515 l 603 585 l 603 860 l 692 919 l 783 860 l 783 515 m 742 503 l 574 444 l 446 444 l 265 565 l 574 565 l 742 503 m 408 282 l 229 282 l 229 546 l 408 431 l 408 282 m 408 0 l 228 0 l 228 215 l 408 215 l 408 0 z "},"@":{"ha":1611,"x_min":121,"x_max":1492,"o":"m 1153 201 q 1136 200 1144 200 q 1119 200 1125 200 q 987 235 1039 200 q 942 319 935 271 q 856 243 919 269 q 719 217 793 217 q 547 279 615 217 q 471 475 471 350 q 610 721 489 619 q 844 815 722 815 q 958 792 907 815 q 1029 732 1010 769 l 1050 814 l 1150 814 l 1057 513 q 1035 440 1042 463 q 1022 374 1022 399 q 1046 301 1022 335 q 1084 269 1061 281 q 1136 257 1107 257 q 1165 261 1150 257 q 1314 357 1247 282 q 1400 592 1400 454 q 1251 855 1400 756 q 869 954 1103 954 q 438 826 625 954 q 240 501 240 692 q 423 183 240 325 q 844 42 606 42 q 1153 94 999 42 q 1400 231 1307 147 l 1446 188 q 1170 33 1322 83 q 844 -18 1018 -18 q 328 130 536 -18 q 121 501 121 278 q 374 874 121 719 q 900 1018 611 1018 q 1326 899 1161 1018 q 1492 597 1492 779 q 1388 332 1492 451 q 1153 201 1283 213 m 983 592 q 992 653 992 628 q 944 743 992 717 q 844 763 910 763 q 679 663 765 763 q 588 433 588 556 q 622 306 588 344 q 719 271 653 271 q 829 294 789 271 q 928 411 879 324 q 961 515 936 431 q 983 592 968 542 z "},"A":{"ha":1032,"x_min":90,"x_max":944,"o":"m 944 515 l 765 585 l 765 860 l 944 981 l 944 515 m 915 1000 l 736 881 l 300 881 l 119 1000 l 915 1000 m 269 585 l 90 515 l 90 981 l 269 860 l 269 585 m 904 500 l 736 444 l 300 444 l 132 500 l 300 565 l 736 565 l 904 500 m 944 0 l 765 119 l 765 425 l 944 485 l 944 0 m 269 119 l 90 0 l 90 485 l 269 425 l 269 119 z "},"B":{"ha":1032,"x_min":90,"x_max":944,"o":"m 944 515 l 765 585 l 765 860 l 854 919 l 944 860 l 944 515 m 828 939 l 736 881 l 300 881 l 119 1000 l 736 1000 l 828 939 m 269 585 l 90 515 l 90 981 l 269 860 l 269 585 m 944 140 l 854 81 l 765 140 l 765 425 l 944 485 l 944 140 m 904 500 l 736 444 l 300 444 l 132 500 l 300 565 l 736 565 l 904 500 m 269 140 l 90 19 l 90 485 l 269 425 l 269 140 m 828 61 l 736 0 l 119 0 l 300 119 l 736 119 l 828 61 z "},"C":{"ha":928,"x_min":90,"x_max":915,"o":"m 915 1000 l 736 881 l 300 881 l 208 939 l 300 1000 l 915 1000 m 269 575 l 90 515 l 90 860 l 179 919 l 269 860 l 269 575 m 915 0 l 300 0 l 208 61 l 300 119 l 736 119 l 915 0 m 269 140 l 179 81 l 90 140 l 90 485 l 269 415 l 269 140 z "},"D":{"ha":1032,"x_min":90,"x_max":944,"o":"m 944 515 l 765 585 l 765 860 l 854 919 l 944 860 l 944 515 m 828 939 l 736 881 l 300 881 l 119 1000 l 736 1000 l 828 939 m 269 585 l 90 515 l 90 981 l 269 860 l 269 585 m 944 140 l 854 81 l 765 140 l 765 425 l 944 485 l 944 140 m 269 140 l 90 19 l 90 485 l 269 425 l 269 140 m 828 61 l 736 0 l 119 0 l 300 119 l 736 119 l 828 61 z "},"E":{"ha":928,"x_min":90,"x_max":915,"o":"m 915 1000 l 736 881 l 300 881 l 119 1000 l 915 1000 m 269 585 l 90 515 l 90 981 l 269 860 l 269 585 m 904 500 l 736 444 l 300 444 l 132 500 l 300 565 l 736 565 l 904 500 m 915 0 l 119 0 l 300 119 l 736 119 l 915 0 m 269 140 l 90 19 l 90 485 l 269 425 l 269 140 z "},"F":{"ha":913,"x_min":90,"x_max":915,"o":"m 915 1000 l 736 881 l 300 881 l 119 1000 l 915 1000 m 269 585 l 90 515 l 90 981 l 269 860 l 269 585 m 904 500 l 736 444 l 300 444 l 132 500 l 300 565 l 736 565 l 904 500 m 269 119 l 90 0 l 90 485 l 269 425 l 269 119 z "},"G":{"ha":1032,"x_min":90,"x_max":944,"o":"m 907 1000 l 736 881 l 300 881 l 208 939 l 300 1000 l 907 1000 m 904 500 l 736 444 l 569 444 l 400 500 l 569 565 l 736 565 l 904 500 m 944 140 l 854 81 l 765 140 l 765 425 l 944 485 l 944 140 m 269 585 l 90 515 l 90 860 l 179 919 l 269 860 l 269 585 m 269 140 l 179 81 l 90 140 l 90 485 l 269 425 l 269 140 m 828 61 l 736 0 l 300 0 l 208 61 l 300 119 l 736 119 l 828 61 z "},"H":{"ha":1032,"x_min":90,"x_max":944,"o":"m 944 515 l 765 585 l 765 881 l 944 1000 l 944 515 m 269 585 l 90 515 l 90 1000 l 269 881 l 269 585 m 904 500 l 736 444 l 300 444 l 132 500 l 300 565 l 736 565 l 904 500 m 944 0 l 765 119 l 765 425 l 944 485 l 944 0 m 269 119 l 90 0 l 90 485 l 269 425 l 269 119 z "},"I":{"ha":354,"x_min":90,"x_max":269,"o":"m 269 515 l 90 585 l 90 881 l 269 1000 l 269 515 m 269 0 l 90 119 l 90 425 l 269 485 l 269 0 z "},"J":{"ha":1032,"x_min":90,"x_max":944,"o":"m 944 515 l 765 585 l 765 881 l 944 1000 l 944 515 m 944 19 l 765 140 l 765 425 l 944 485 l 944 19 m 915 0 l 119 0 l 300 119 l 736 119 l 915 0 m 269 140 l 90 19 l 90 485 l 269 425 l 269 140 z "},"K":{"ha":1032,"x_min":90,"x_max":944,"o":"m 944 918 l 433 589 l 307 589 l 307 675 l 813 1000 l 944 1000 l 944 918 m 269 585 l 90 515 l 90 1000 l 269 881 l 269 585 m 904 500 l 736 444 l 300 444 l 132 500 l 300 565 l 736 565 l 904 500 m 944 0 l 765 119 l 765 425 l 944 485 l 944 0 m 269 119 l 90 0 l 90 485 l 269 425 l 269 119 z "},"L":{"ha":1000,"x_min":90,"x_max":944,"o":"m 269 585 l 90 515 l 90 1000 l 269 881 l 269 585 m 944 19 l 765 140 l 765 425 l 944 485 l 944 19 m 915 0 l 119 0 l 300 119 l 736 119 l 915 0 m 269 140 l 90 19 l 90 485 l 269 425 l 269 140 z "},"M":{"ha":1708,"x_min":90,"x_max":1619,"o":"m 1619 515 l 1440 585 l 1440 860 l 1619 979 l 1619 515 m 1590 1000 l 1408 881 l 974 881 l 854 958 l 736 881 l 296 881 l 119 1000 l 1590 1000 m 944 553 l 854 507 l 765 553 l 765 863 l 854 924 l 944 860 l 944 553 m 1619 0 l 1440 119 l 1440 425 l 1619 485 l 1619 0 m 269 585 l 90 515 l 90 981 l 269 860 l 269 585 m 944 100 l 854 0 l 765 100 l 765 431 l 854 485 l 944 431 l 944 100 m 269 119 l 90 0 l 90 485 l 269 425 l 269 119 z "},"N":{"ha":1032,"x_min":90,"x_max":944,"o":"m 944 515 l 765 585 l 765 860 l 944 981 l 944 515 m 915 1000 l 736 881 l 300 881 l 119 1000 l 915 1000 m 269 585 l 90 515 l 90 981 l 269 860 l 269 585 m 944 0 l 765 119 l 765 425 l 944 485 l 944 0 m 269 119 l 90 0 l 90 485 l 269 425 l 269 119 z "},"O":{"ha":1032,"x_min":90,"x_max":944,"o":"m 944 515 l 765 585 l 765 860 l 854 919 l 944 860 l 944 515 m 828 939 l 736 881 l 300 881 l 208 939 l 300 1000 l 736 1000 l 828 939 m 944 140 l 854 81 l 765 140 l 765 425 l 944 485 l 944 140 m 269 585 l 90 515 l 90 860 l 179 919 l 269 860 l 269 585 m 269 140 l 179 81 l 90 140 l 90 485 l 269 425 l 269 140 m 828 61 l 736 0 l 300 0 l 208 61 l 300 119 l 736 119 l 828 61 z "},"P":{"ha":1032,"x_min":90,"x_max":944,"o":"m 944 515 l 765 585 l 765 860 l 854 919 l 944 860 l 944 515 m 828 939 l 736 881 l 300 881 l 119 1000 l 736 1000 l 828 939 m 269 585 l 90 515 l 90 981 l 269 860 l 269 585 m 904 500 l 736 444 l 300 444 l 132 500 l 300 565 l 736 565 l 904 500 m 269 119 l 90 0 l 90 485 l 269 425 l 269 119 z "},"Q":{"ha":1036,"x_min":90,"x_max":949,"o":"m 944 515 l 765 585 l 765 860 l 854 919 l 944 860 l 944 515 m 828 939 l 736 881 l 300 881 l 208 939 l 300 1000 l 736 1000 l 828 939 m 944 140 l 854 81 l 765 140 l 765 425 l 944 485 l 944 140 m 269 585 l 90 515 l 90 860 l 179 919 l 269 860 l 269 585 m 949 -178 l 483 119 l 732 119 l 949 -17 l 949 -178 m 269 140 l 179 81 l 90 140 l 90 485 l 269 425 l 269 140 m 613 0 l 300 0 l 211 65 l 300 119 l 428 119 l 613 0 z "},"R":{"ha":1036,"x_min":90,"x_max":1075,"o":"m 944 515 l 765 585 l 765 860 l 854 919 l 944 860 l 944 515 m 828 939 l 736 881 l 300 881 l 119 1000 l 736 1000 l 828 939 m 269 585 l 90 515 l 90 981 l 269 860 l 269 585 m 904 500 l 736 444 l 300 444 l 132 500 l 300 565 l 736 565 l 904 500 m 1075 -1 l 763 139 l 546 425 l 749 425 l 1075 -1 m 269 140 l 90 19 l 90 485 l 269 425 l 269 140 z "},"S":{"ha":1032,"x_min":90,"x_max":944,"o":"m 944 1000 l 750 881 l 300 881 l 208 939 l 300 1000 l 944 1000 m 944 140 l 854 81 l 765 140 l 765 425 l 944 485 l 944 140 m 904 500 l 736 444 l 300 444 l 132 500 l 300 565 l 736 565 l 904 500 m 269 585 l 90 515 l 90 860 l 179 919 l 269 860 l 269 585 m 828 61 l 736 0 l 90 0 l 286 119 l 736 119 l 828 61 z "},"T":{"ha":854,"x_min":-15,"x_max":871,"o":"m 871 1000 l 728 881 l 533 881 l 432 950 l 324 881 l 128 881 l -15 1000 l 871 1000 m 519 561 l 429 503 l 338 561 l 338 856 l 429 921 l 519 856 l 519 561 m 519 65 l 428 0 l 336 65 l 336 424 l 429 488 l 519 424 l 519 65 z "},"U":{"ha":1032,"x_min":90,"x_max":944,"o":"m 944 515 l 765 585 l 765 885 l 944 1000 l 944 515 m 269 585 l 90 515 l 90 1000 l 269 885 l 269 585 m 944 140 l 854 81 l 765 140 l 765 425 l 944 485 l 944 140 m 269 140 l 179 81 l 90 140 l 90 485 l 269 425 l 269 140 m 828 61 l 736 0 l 300 0 l 208 61 l 300 119 l 736 119 l 828 61 z "},"V":{"ha":1036,"x_min":90,"x_max":949,"o":"m 944 515 l 765 585 l 765 860 l 944 981 l 944 515 m 269 585 l 90 515 l 90 981 l 269 860 l 269 585 m 949 497 l 542 0 l 542 250 l 713 457 l 949 497 m 496 -1 l 90 499 l 325 457 l 496 250 l 496 -1 z "},"W":{"ha":1708,"x_min":90,"x_max":1621,"o":"m 1621 515 l 1440 575 l 1440 881 l 1621 1000 l 1621 515 m 946 569 l 854 515 l 765 569 l 765 900 l 854 1000 l 946 900 l 946 569 m 1621 138 l 1536 79 l 1442 138 l 1442 415 l 1621 489 l 1621 138 m 271 575 l 90 515 l 90 1000 l 271 881 l 271 575 m 946 138 l 857 76 l 765 140 l 765 447 l 854 493 l 946 447 l 946 138 m 1504 60 l 1415 0 l 299 0 l 211 57 l 300 119 l 736 119 l 854 39 l 975 119 l 1413 119 l 1504 60 m 269 138 l 179 78 l 90 138 l 90 489 l 269 414 l 269 138 z "},"X":{"ha":908,"x_min":46,"x_max":865,"o":"m 865 901 l 571 514 l 478 514 l 478 653 l 740 1000 l 865 1000 l 865 901 m 436 514 l 342 514 l 46 906 l 46 1000 l 175 1000 l 436 653 l 436 514 m 865 0 l 736 0 l 478 344 l 478 486 l 571 486 l 865 99 l 865 0 m 436 344 l 174 0 l 46 0 l 46 101 l 342 486 l 436 486 l 436 344 z "},"Y":{"ha":1032,"x_min":90,"x_max":944,"o":"m 944 515 l 765 585 l 765 881 l 944 1000 l 944 515 m 269 585 l 90 515 l 90 1000 l 269 881 l 269 585 m 904 500 l 736 444 l 300 444 l 132 500 l 300 565 l 736 565 l 904 500 m 613 69 l 517 0 l 429 69 l 429 418 l 613 418 l 613 69 z "},"Z":{"ha":879,"x_min":15,"x_max":867,"o":"m 867 1000 l 546 507 l 429 633 l 671 1000 l 867 1000 m 632 1000 l 554 881 l 228 881 l 49 1000 l 632 1000 m 533 486 l 211 0 l 15 0 l 321 458 l 533 486 m 832 0 l 246 0 l 333 119 l 650 119 l 832 0 z "},"[":{"ha":553,"x_min":90,"x_max":540,"o":"m 540 1000 l 361 881 l 300 881 l 119 1000 l 540 1000 m 269 585 l 90 515 l 90 981 l 269 860 l 269 585 m 269 140 l 90 19 l 90 485 l 269 425 l 269 140 m 540 0 l 119 0 l 300 119 l 361 119 l 540 0 z "},"\\":{"ha":600,"x_min":104,"x_max":499,"o":"m 499 0 l 367 0 l 104 1000 l 236 1000 l 499 0 z "},"]":{"ha":553,"x_min":15,"x_max":465,"o":"m 436 1000 l 254 881 l 194 881 l 15 1000 l 436 1000 m 465 515 l 286 575 l 286 860 l 465 981 l 465 515 m 465 19 l 286 140 l 286 415 l 465 485 l 465 19 m 436 0 l 15 0 l 194 119 l 254 119 l 436 0 z "},"^":{"ha":1199,"x_min":104,"x_max":1099,"o":"m 1099 242 l 949 242 l 600 663 l 254 242 l 104 242 l 600 826 l 1099 242 z "},"_":{"ha":957,"x_min":104,"x_max":854,"o":"m 854 -37 l 104 -37 l 104 0 l 854 0 l 854 -37 z "},"`":{"ha":329,"x_min":0,"x_max":332,"o":"m 332 503 l 136 503 l 0 703 l 196 703 l 332 503 z "},"a":{"ha":1032,"x_min":90,"x_max":944,"o":"m 944 515 l 765 585 l 765 860 l 944 981 l 944 515 m 915 1000 l 736 881 l 300 881 l 119 1000 l 915 1000 m 269 585 l 90 515 l 90 981 l 269 860 l 269 585 m 904 500 l 736 444 l 300 444 l 132 500 l 300 565 l 736 565 l 904 500 m 944 0 l 765 119 l 765 425 l 944 485 l 944 0 m 269 119 l 90 0 l 90 485 l 269 425 l 269 119 z "},"b":{"ha":1032,"x_min":90,"x_max":944,"o":"m 944 515 l 765 585 l 765 860 l 854 919 l 944 860 l 944 515 m 828 939 l 736 881 l 300 881 l 119 1000 l 736 1000 l 828 939 m 269 585 l 90 515 l 90 981 l 269 860 l 269 585 m 944 140 l 854 81 l 765 140 l 765 425 l 944 485 l 944 140 m 904 500 l 736 444 l 300 444 l 132 500 l 300 565 l 736 565 l 904 500 m 269 140 l 90 19 l 90 485 l 269 425 l 269 140 m 828 61 l 736 0 l 119 0 l 300 119 l 736 119 l 828 61 z "},"c":{"ha":928,"x_min":90,"x_max":915,"o":"m 915 1000 l 736 881 l 300 881 l 208 939 l 300 1000 l 915 1000 m 269 575 l 90 515 l 90 860 l 179 919 l 269 860 l 269 575 m 915 0 l 300 0 l 208 61 l 300 119 l 736 119 l 915 0 m 269 140 l 179 81 l 90 140 l 90 485 l 269 415 l 269 140 z "},"d":{"ha":1032,"x_min":90,"x_max":944,"o":"m 944 515 l 765 585 l 765 860 l 854 919 l 944 860 l 944 515 m 828 939 l 736 881 l 300 881 l 119 1000 l 736 1000 l 828 939 m 269 585 l 90 515 l 90 981 l 269 860 l 269 585 m 944 140 l 854 81 l 765 140 l 765 425 l 944 485 l 944 140 m 269 140 l 90 19 l 90 485 l 269 425 l 269 140 m 828 61 l 736 0 l 119 0 l 300 119 l 736 119 l 828 61 z "},"e":{"ha":928,"x_min":90,"x_max":915,"o":"m 915 1000 l 736 881 l 300 881 l 119 1000 l 915 1000 m 269 585 l 90 515 l 90 981 l 269 860 l 269 585 m 904 500 l 736 444 l 300 444 l 132 500 l 300 565 l 736 565 l 904 500 m 915 0 l 119 0 l 300 119 l 736 119 l 915 0 m 269 140 l 90 19 l 90 485 l 269 425 l 269 140 z "},"f":{"ha":913,"x_min":90,"x_max":915,"o":"m 915 1000 l 736 881 l 300 881 l 119 1000 l 915 1000 m 269 585 l 90 515 l 90 981 l 269 860 l 269 585 m 904 500 l 736 444 l 300 444 l 132 500 l 300 565 l 736 565 l 904 500 m 269 119 l 90 0 l 90 485 l 269 425 l 269 119 z "},"g":{"ha":1032,"x_min":90,"x_max":944,"o":"m 907 1000 l 736 881 l 300 881 l 208 939 l 300 1000 l 907 1000 m 904 500 l 736 444 l 569 444 l 400 500 l 569 565 l 736 565 l 904 500 m 944 140 l 854 81 l 765 140 l 765 425 l 944 485 l 944 140 m 269 585 l 90 515 l 90 860 l 179 919 l 269 860 l 269 585 m 269 140 l 179 81 l 90 140 l 90 485 l 269 425 l 269 140 m 828 61 l 736 0 l 300 0 l 208 61 l 300 119 l 736 119 l 828 61 z "},"h":{"ha":1032,"x_min":90,"x_max":944,"o":"m 944 515 l 765 585 l 765 881 l 944 1000 l 944 515 m 269 585 l 90 515 l 90 1000 l 269 881 l 269 585 m 904 500 l 736 444 l 300 444 l 132 500 l 300 565 l 736 565 l 904 500 m 944 0 l 765 119 l 765 425 l 944 485 l 944 0 m 269 119 l 90 0 l 90 485 l 269 425 l 269 119 z "},"i":{"ha":354,"x_min":90,"x_max":269,"o":"m 269 515 l 90 585 l 90 881 l 269 1000 l 269 515 m 269 0 l 90 119 l 90 425 l 269 485 l 269 0 z "},"j":{"ha":1032,"x_min":90,"x_max":944,"o":"m 944 515 l 765 585 l 765 881 l 944 1000 l 944 515 m 944 19 l 765 140 l 765 425 l 944 485 l 944 19 m 915 0 l 119 0 l 300 119 l 736 119 l 915 0 m 269 140 l 90 19 l 90 485 l 269 425 l 269 140 z "},"k":{"ha":1032,"x_min":90,"x_max":944,"o":"m 944 918 l 433 589 l 307 589 l 307 675 l 813 1000 l 944 1000 l 944 918 m 269 585 l 90 515 l 90 1000 l 269 881 l 269 585 m 904 500 l 736 444 l 300 444 l 132 500 l 300 565 l 736 565 l 904 500 m 944 0 l 765 119 l 765 425 l 944 485 l 944 0 m 269 119 l 90 0 l 90 485 l 269 425 l 269 119 z "},"l":{"ha":1000,"x_min":90,"x_max":944,"o":"m 269 585 l 90 515 l 90 1000 l 269 881 l 269 585 m 944 19 l 765 140 l 765 425 l 944 485 l 944 19 m 915 0 l 119 0 l 300 119 l 736 119 l 915 0 m 269 140 l 90 19 l 90 485 l 269 425 l 269 140 z "},"m":{"ha":1708,"x_min":90,"x_max":1619,"o":"m 1619 515 l 1440 585 l 1440 860 l 1619 979 l 1619 515 m 1590 1000 l 1408 881 l 974 881 l 854 958 l 736 881 l 296 881 l 119 1000 l 1590 1000 m 944 553 l 854 507 l 765 553 l 765 863 l 854 924 l 944 860 l 944 553 m 1619 0 l 1440 119 l 1440 425 l 1619 485 l 1619 0 m 269 585 l 90 515 l 90 981 l 269 860 l 269 585 m 944 100 l 854 0 l 765 100 l 765 431 l 854 485 l 944 431 l 944 100 m 269 119 l 90 0 l 90 485 l 269 425 l 269 119 z "},"n":{"ha":1032,"x_min":90,"x_max":944,"o":"m 944 515 l 765 585 l 765 860 l 944 981 l 944 515 m 915 1000 l 736 881 l 300 881 l 119 1000 l 915 1000 m 269 585 l 90 515 l 90 981 l 269 860 l 269 585 m 944 0 l 765 119 l 765 425 l 944 485 l 944 0 m 269 119 l 90 0 l 90 485 l 269 425 l 269 119 z "},"o":{"ha":1032,"x_min":90,"x_max":944,"o":"m 944 515 l 765 585 l 765 860 l 854 919 l 944 860 l 944 515 m 828 939 l 736 881 l 300 881 l 208 939 l 300 1000 l 736 1000 l 828 939 m 944 140 l 854 81 l 765 140 l 765 425 l 944 485 l 944 140 m 269 585 l 90 515 l 90 860 l 179 919 l 269 860 l 269 585 m 269 140 l 179 81 l 90 140 l 90 485 l 269 425 l 269 140 m 828 61 l 736 0 l 300 0 l 208 61 l 300 119 l 736 119 l 828 61 z "},"p":{"ha":1032,"x_min":90,"x_max":944,"o":"m 944 515 l 765 585 l 765 860 l 854 919 l 944 860 l 944 515 m 828 939 l 736 881 l 300 881 l 119 1000 l 736 1000 l 828 939 m 269 585 l 90 515 l 90 981 l 269 860 l 269 585 m 904 500 l 736 444 l 300 444 l 132 500 l 300 565 l 736 565 l 904 500 m 269 119 l 90 0 l 90 485 l 269 425 l 269 119 z "},"q":{"ha":1036,"x_min":90,"x_max":949,"o":"m 944 515 l 765 585 l 765 860 l 854 919 l 944 860 l 944 515 m 828 939 l 736 881 l 300 881 l 208 939 l 300 1000 l 736 1000 l 828 939 m 944 140 l 854 81 l 765 140 l 765 425 l 944 485 l 944 140 m 269 585 l 90 515 l 90 860 l 179 919 l 269 860 l 269 585 m 949 -178 l 483 119 l 732 119 l 949 -17 l 949 -178 m 269 140 l 179 81 l 90 140 l 90 485 l 269 425 l 269 140 m 613 0 l 300 0 l 211 65 l 300 119 l 428 119 l 613 0 z "},"r":{"ha":1036,"x_min":90,"x_max":1075,"o":"m 944 515 l 765 585 l 765 860 l 854 919 l 944 860 l 944 515 m 828 939 l 736 881 l 300 881 l 119 1000 l 736 1000 l 828 939 m 269 585 l 90 515 l 90 981 l 269 860 l 269 585 m 904 500 l 736 444 l 300 444 l 132 500 l 300 565 l 736 565 l 904 500 m 1075 -1 l 763 139 l 546 425 l 749 425 l 1075 -1 m 269 140 l 90 19 l 90 485 l 269 425 l 269 140 z "},"s":{"ha":1032,"x_min":90,"x_max":944,"o":"m 944 1000 l 750 881 l 300 881 l 208 939 l 300 1000 l 944 1000 m 944 140 l 854 81 l 765 140 l 765 425 l 944 485 l 944 140 m 904 500 l 736 444 l 300 444 l 132 500 l 300 565 l 736 565 l 904 500 m 269 585 l 90 515 l 90 860 l 179 919 l 269 860 l 269 585 m 828 61 l 736 0 l 90 0 l 286 119 l 736 119 l 828 61 z "},"t":{"ha":854,"x_min":-15,"x_max":871,"o":"m 871 1000 l 728 881 l 533 881 l 432 950 l 324 881 l 128 881 l -15 1000 l 871 1000 m 519 561 l 429 503 l 338 561 l 338 856 l 429 921 l 519 856 l 519 561 m 519 65 l 428 0 l 336 65 l 336 424 l 429 488 l 519 424 l 519 65 z "},"u":{"ha":1032,"x_min":90,"x_max":944,"o":"m 944 515 l 765 585 l 765 885 l 944 1000 l 944 515 m 269 585 l 90 515 l 90 1000 l 269 885 l 269 585 m 944 140 l 854 81 l 765 140 l 765 425 l 944 485 l 944 140 m 269 140 l 179 81 l 90 140 l 90 485 l 269 425 l 269 140 m 828 61 l 736 0 l 300 0 l 208 61 l 300 119 l 736 119 l 828 61 z "},"v":{"ha":1036,"x_min":90,"x_max":949,"o":"m 944 515 l 765 585 l 765 860 l 944 981 l 944 515 m 269 585 l 90 515 l 90 981 l 269 860 l 269 585 m 949 497 l 542 0 l 542 250 l 713 457 l 949 497 m 496 -1 l 90 499 l 325 457 l 496 250 l 496 -1 z "},"w":{"ha":1708,"x_min":90,"x_max":1621,"o":"m 1621 515 l 1440 575 l 1440 881 l 1621 1000 l 1621 515 m 946 569 l 854 515 l 765 569 l 765 900 l 854 1000 l 946 900 l 946 569 m 1621 138 l 1536 79 l 1442 138 l 1442 415 l 1621 489 l 1621 138 m 271 575 l 90 515 l 90 1000 l 271 881 l 271 575 m 946 138 l 857 76 l 765 140 l 765 447 l 854 493 l 946 447 l 946 138 m 1504 60 l 1415 0 l 299 0 l 211 57 l 300 119 l 736 119 l 854 39 l 975 119 l 1413 119 l 1504 60 m 269 138 l 179 78 l 90 138 l 90 489 l 269 414 l 269 138 z "},"x":{"ha":908,"x_min":46,"x_max":865,"o":"m 865 901 l 571 514 l 478 514 l 478 653 l 740 1000 l 865 1000 l 865 901 m 436 514 l 342 514 l 46 906 l 46 1000 l 175 1000 l 436 653 l 436 514 m 865 0 l 736 0 l 478 344 l 478 486 l 571 486 l 865 99 l 865 0 m 436 344 l 174 0 l 46 0 l 46 101 l 342 486 l 436 486 l 436 344 z "},"y":{"ha":1032,"x_min":90,"x_max":944,"o":"m 944 515 l 765 585 l 765 881 l 944 1000 l 944 515 m 269 585 l 90 515 l 90 1000 l 269 881 l 269 585 m 904 500 l 736 444 l 300 444 l 132 500 l 300 565 l 736 565 l 904 500 m 613 69 l 517 0 l 429 69 l 429 418 l 613 418 l 613 69 z "},"z":{"ha":879,"x_min":15,"x_max":867,"o":"m 867 1000 l 546 507 l 429 633 l 671 1000 l 867 1000 m 632 1000 l 554 881 l 228 881 l 49 1000 l 632 1000 m 533 486 l 211 0 l 15 0 l 321 458 l 533 486 m 832 0 l 246 0 l 333 119 l 650 119 l 832 0 z "},"{":{"ha":632,"x_min":104,"x_max":529,"o":"m 529 -156 l 396 -156 q 233 -64 233 -156 l 233 401 q 153 492 233 468 q 104 500 129 500 q 197 528 161 500 q 233 599 233 556 l 233 1064 q 396 1156 233 1156 l 529 1156 l 529 1104 l 507 1104 q 408 1088 433 1104 q 383 1019 383 1071 l 383 608 q 344 533 383 565 q 244 500 304 500 q 344 468 304 500 q 383 392 383 436 l 383 -19 q 407 -87 383 -71 q 507 -104 431 -104 l 529 -104 l 529 -156 z "},"|":{"ha":338,"x_min":104,"x_max":236,"o":"m 236 0 l 104 0 l 104 1000 l 236 1000 l 236 0 z "},"}":{"ha":632,"x_min":104,"x_max":529,"o":"m 529 500 q 482 492 503 500 q 400 401 400 467 l 400 -64 q 240 -156 400 -156 l 104 -156 l 104 -104 l 128 -104 q 226 -87 203 -104 q 250 -19 250 -71 l 250 392 q 291 467 250 435 q 392 500 332 500 q 367 502 381 500 q 338 510 353 504 q 250 608 250 539 l 250 1019 q 227 1088 250 1072 q 128 1104 204 1104 l 104 1104 l 104 1156 l 240 1156 q 400 1064 400 1156 l 400 599 q 422 543 400 567 q 482 508 443 519 q 529 500 503 500 z "},"~":{"ha":954,"x_min":104,"x_max":853,"o":"m 853 558 q 794 446 844 485 q 663 407 744 407 q 607 411 636 407 q 542 425 578 415 l 382 469 l 354 475 q 288 483 314 483 q 238 469 254 483 q 211 419 221 456 l 208 406 l 104 406 l 104 429 q 163 542 113 503 q 294 581 213 581 q 350 576 321 581 q 415 563 379 572 l 575 518 l 600 511 q 667 503 640 503 q 719 517 701 503 q 746 568 736 532 l 749 581 l 853 581 l 853 558 z "},"Ä":{"ha":1032,"x_min":90,"x_max":944,"o":"m 944 515 l 765 585 l 765 860 l 944 981 l 944 515 m 915 1000 l 736 881 l 300 881 l 119 1000 l 915 1000 m 269 585 l 90 515 l 90 981 l 269 860 l 269 585 m 904 500 l 736 444 l 300 444 l 132 500 l 300 565 l 736 565 l 904 500 m 944 0 l 765 119 l 765 425 l 944 485 l 944 0 m 269 119 l 90 0 l 90 485 l 269 425 l 269 119 m 763 1067 l 583 1067 l 583 1247 l 763 1247 l 763 1067 m 429 1067 l 250 1067 l 250 1247 l 429 1247 l 429 1067 z "},"Å":{"ha":1032,"x_min":90,"x_max":944,"o":"m 944 515 l 765 585 l 765 860 l 944 981 l 944 515 m 915 1000 l 736 881 l 300 881 l 119 1000 l 915 1000 m 269 585 l 90 515 l 90 981 l 269 860 l 269 585 m 904 500 l 736 444 l 300 444 l 132 500 l 300 565 l 736 565 l 904 500 m 944 0 l 765 119 l 765 425 l 944 485 l 944 0 m 269 119 l 90 0 l 90 485 l 269 425 l 269 119 m 797 1146 l 715 1094 l 644 1143 l 644 1260 l 715 1310 l 797 1258 l 797 1146 m 690 1324 l 615 1276 l 439 1276 l 361 1324 l 440 1378 l 614 1378 l 690 1324 m 690 1075 l 628 1036 l 424 1036 l 361 1075 l 453 1135 l 601 1135 l 690 1075 m 414 1143 l 339 1094 l 257 1146 l 257 1257 l 339 1308 l 414 1258 l 414 1143 z "},"Ç":{"ha":958,"x_min":90,"x_max":915,"o":"m 915 1000 l 736 881 l 300 881 l 208 939 l 300 1000 l 915 1000 m 269 575 l 90 515 l 90 860 l 179 919 l 269 860 l 269 575 m 915 0 l 300 0 l 208 61 l 300 119 l 736 119 l 915 0 m 269 140 l 179 81 l 90 140 l 90 485 l 269 415 l 269 140 m 632 -35 l 511 -136 l 319 -136 l 440 -35 l 632 -35 z "},"É":{"ha":928,"x_min":90,"x_max":915,"o":"m 915 1000 l 736 881 l 300 881 l 119 1000 l 915 1000 m 269 585 l 90 515 l 90 981 l 269 860 l 269 585 m 904 500 l 736 444 l 300 444 l 132 500 l 300 565 l 736 565 l 904 500 m 915 0 l 119 0 l 300 119 l 736 119 l 915 0 m 269 140 l 90 19 l 90 485 l 269 425 l 269 140 m 750 1249 l 613 1049 l 418 1049 l 554 1249 l 750 1249 z "},"Ñ":{"ha":1032,"x_min":90,"x_max":944,"o":"m 944 515 l 765 585 l 765 860 l 944 981 l 944 515 m 915 1000 l 736 881 l 300 881 l 119 1000 l 915 1000 m 269 585 l 90 515 l 90 981 l 269 860 l 269 585 m 944 0 l 765 119 l 765 425 l 944 485 l 944 0 m 269 119 l 90 0 l 90 485 l 269 425 l 269 119 m 854 1253 l 779 1093 l 658 1242 l 679 1285 l 854 1253 m 736 1076 l 444 1136 l 319 1285 l 621 1222 l 736 1076 m 394 1119 l 374 1076 l 200 1110 l 274 1269 l 394 1119 z "},"Ö":{"ha":1032,"x_min":90,"x_max":944,"o":"m 944 515 l 765 585 l 765 860 l 854 919 l 944 860 l 944 515 m 828 939 l 736 881 l 300 881 l 208 939 l 300 1000 l 736 1000 l 828 939 m 944 140 l 854 81 l 765 140 l 765 425 l 944 485 l 944 140 m 269 585 l 90 515 l 90 860 l 179 919 l 269 860 l 269 585 m 269 140 l 179 81 l 90 140 l 90 485 l 269 425 l 269 140 m 828 61 l 736 0 l 300 0 l 208 61 l 300 119 l 736 119 l 828 61 m 767 1068 l 588 1068 l 588 1249 l 767 1249 l 767 1068 m 433 1068 l 254 1068 l 254 1249 l 433 1249 l 433 1068 z "},"Ü":{"ha":1032,"x_min":90,"x_max":944,"o":"m 944 515 l 765 585 l 765 885 l 944 1000 l 944 515 m 269 585 l 90 515 l 90 1000 l 269 885 l 269 585 m 944 140 l 854 81 l 765 140 l 765 425 l 944 485 l 944 140 m 269 140 l 179 81 l 90 140 l 90 485 l 269 425 l 269 140 m 828 61 l 736 0 l 300 0 l 208 61 l 300 119 l 736 119 l 828 61 m 763 1068 l 583 1068 l 583 1249 l 763 1249 l 763 1068 m 429 1068 l 250 1068 l 250 1249 l 429 1249 l 429 1068 z "},"á":{"ha":1032,"x_min":90,"x_max":944,"o":"m 944 515 l 765 585 l 765 860 l 944 981 l 944 515 m 915 1000 l 736 881 l 300 881 l 119 1000 l 915 1000 m 269 585 l 90 515 l 90 981 l 269 860 l 269 585 m 904 500 l 736 444 l 300 444 l 132 500 l 300 565 l 736 565 l 904 500 m 944 0 l 765 119 l 765 425 l 944 485 l 944 0 m 269 119 l 90 0 l 90 485 l 269 425 l 269 119 m 758 1247 l 621 1047 l 426 1047 l 563 1247 l 758 1247 z "},"à":{"ha":1032,"x_min":90,"x_max":944,"o":"m 944 515 l 765 585 l 765 860 l 944 981 l 944 515 m 915 1000 l 736 881 l 300 881 l 119 1000 l 915 1000 m 269 585 l 90 515 l 90 981 l 269 860 l 269 585 m 904 500 l 736 444 l 300 444 l 132 500 l 300 565 l 736 565 l 904 500 m 944 0 l 765 119 l 765 425 l 944 485 l 944 0 m 269 119 l 90 0 l 90 485 l 269 425 l 269 119 m 608 1047 l 413 1047 l 276 1247 l 472 1247 l 608 1047 z "},"â":{"ha":1032,"x_min":90,"x_max":944,"o":"m 944 515 l 765 585 l 765 860 l 944 981 l 944 515 m 915 1000 l 736 881 l 300 881 l 119 1000 l 915 1000 m 269 585 l 90 515 l 90 981 l 269 860 l 269 585 m 904 500 l 736 444 l 300 444 l 132 500 l 300 565 l 736 565 l 904 500 m 944 0 l 765 119 l 765 425 l 944 485 l 944 0 m 269 119 l 90 0 l 90 485 l 269 425 l 269 119 m 932 1065 l 668 1065 l 539 1147 l 594 1285 l 932 1065 m 493 1147 l 364 1065 l 115 1065 l 443 1286 l 493 1147 z "},"ä":{"ha":1032,"x_min":90,"x_max":944,"o":"m 944 515 l 765 585 l 765 860 l 944 981 l 944 515 m 915 1000 l 736 881 l 300 881 l 119 1000 l 915 1000 m 269 585 l 90 515 l 90 981 l 269 860 l 269 585 m 904 500 l 736 444 l 300 444 l 132 500 l 300 565 l 736 565 l 904 500 m 944 0 l 765 119 l 765 425 l 944 485 l 944 0 m 269 119 l 90 0 l 90 485 l 269 425 l 269 119 m 763 1067 l 583 1067 l 583 1247 l 763 1247 l 763 1067 m 429 1067 l 250 1067 l 250 1247 l 429 1247 l 429 1067 z "},"ã":{"ha":1032,"x_min":90,"x_max":944,"o":"m 944 515 l 765 585 l 765 860 l 944 981 l 944 515 m 915 1000 l 736 881 l 300 881 l 119 1000 l 915 1000 m 269 585 l 90 515 l 90 981 l 269 860 l 269 585 m 904 500 l 736 444 l 300 444 l 132 500 l 300 565 l 736 565 l 904 500 m 944 0 l 765 119 l 765 425 l 944 485 l 944 0 m 269 119 l 90 0 l 90 485 l 269 425 l 269 119 m 825 1261 l 750 1101 l 629 1250 l 650 1293 l 825 1261 m 707 1085 l 415 1144 l 290 1293 l 592 1231 l 707 1085 m 365 1128 l 344 1085 l 171 1118 l 244 1278 l 365 1128 z "},"å":{"ha":1032,"x_min":90,"x_max":944,"o":"m 944 515 l 765 585 l 765 860 l 944 981 l 944 515 m 915 1000 l 736 881 l 300 881 l 119 1000 l 915 1000 m 269 585 l 90 515 l 90 981 l 269 860 l 269 585 m 904 500 l 736 444 l 300 444 l 132 500 l 300 565 l 736 565 l 904 500 m 944 0 l 765 119 l 765 425 l 944 485 l 944 0 m 269 119 l 90 0 l 90 485 l 269 425 l 269 119 m 797 1146 l 715 1094 l 644 1143 l 644 1260 l 715 1310 l 797 1258 l 797 1146 m 690 1324 l 615 1276 l 439 1276 l 361 1324 l 440 1378 l 614 1378 l 690 1324 m 690 1075 l 628 1036 l 424 1036 l 361 1075 l 453 1135 l 601 1135 l 690 1075 m 414 1143 l 339 1094 l 257 1146 l 257 1257 l 339 1308 l 414 1258 l 414 1143 z "},"ç":{"ha":958,"x_min":90,"x_max":915,"o":"m 915 1000 l 736 881 l 300 881 l 208 939 l 300 1000 l 915 1000 m 269 575 l 90 515 l 90 860 l 179 919 l 269 860 l 269 575 m 915 0 l 300 0 l 208 61 l 300 119 l 736 119 l 915 0 m 269 140 l 179 81 l 90 140 l 90 485 l 269 415 l 269 140 m 632 -35 l 511 -136 l 319 -136 l 440 -35 l 632 -35 z "},"é":{"ha":928,"x_min":90,"x_max":915,"o":"m 915 1000 l 736 881 l 300 881 l 119 1000 l 915 1000 m 269 585 l 90 515 l 90 981 l 269 860 l 269 585 m 904 500 l 736 444 l 300 444 l 132 500 l 300 565 l 736 565 l 904 500 m 915 0 l 119 0 l 300 119 l 736 119 l 915 0 m 269 140 l 90 19 l 90 485 l 269 425 l 269 140 m 736 1249 l 599 1049 l 404 1049 l 540 1249 l 736 1249 z "},"è":{"ha":928,"x_min":90,"x_max":915,"o":"m 915 1000 l 736 881 l 300 881 l 119 1000 l 915 1000 m 269 585 l 90 515 l 90 981 l 269 860 l 269 585 m 904 500 l 736 444 l 300 444 l 132 500 l 300 565 l 736 565 l 904 500 m 915 0 l 119 0 l 300 119 l 736 119 l 915 0 m 269 140 l 90 19 l 90 485 l 269 425 l 269 140 m 557 1047 l 361 1047 l 225 1247 l 421 1247 l 557 1047 z "},"ê":{"ha":928,"x_min":90,"x_max":915,"o":"m 915 1000 l 736 881 l 300 881 l 119 1000 l 915 1000 m 269 585 l 90 515 l 90 981 l 269 860 l 269 585 m 904 500 l 736 444 l 300 444 l 132 500 l 300 565 l 736 565 l 904 500 m 915 0 l 119 0 l 300 119 l 736 119 l 915 0 m 269 140 l 90 19 l 90 485 l 269 425 l 269 140 m 911 1072 l 647 1072 l 518 1154 l 574 1292 l 911 1072 m 472 1154 l 343 1072 l 94 1072 l 422 1293 l 472 1154 z "},"ë":{"ha":928,"x_min":90,"x_max":915,"o":"m 915 1000 l 736 881 l 300 881 l 119 1000 l 915 1000 m 269 585 l 90 515 l 90 981 l 269 860 l 269 585 m 904 500 l 736 444 l 300 444 l 132 500 l 300 565 l 736 565 l 904 500 m 915 0 l 119 0 l 300 119 l 736 119 l 915 0 m 269 140 l 90 19 l 90 485 l 269 425 l 269 140 m 753 1067 l 574 1067 l 574 1247 l 753 1247 l 753 1067 m 419 1067 l 240 1067 l 240 1247 l 419 1247 l 419 1067 z "},"í":{"ha":354,"x_min":69,"x_max":401,"o":"m 269 515 l 90 585 l 90 881 l 269 1000 l 269 515 m 269 0 l 90 119 l 90 425 l 269 485 l 269 0 m 401 1247 l 264 1047 l 69 1047 l 206 1247 l 401 1247 z "},"ì":{"ha":354,"x_min":-49,"x_max":283,"o":"m 269 515 l 90 585 l 90 881 l 269 1000 l 269 515 m 269 0 l 90 119 l 90 425 l 269 485 l 269 0 m 283 1047 l 88 1047 l -49 1247 l 147 1247 l 283 1047 z "},"î":{"ha":354,"x_min":-206,"x_max":611,"o":"m 269 515 l 90 585 l 90 881 l 269 1000 l 269 515 m 269 0 l 90 119 l 90 425 l 269 485 l 269 0 m 611 1069 l 347 1069 l 218 1151 l 274 1289 l 611 1069 m 172 1151 l 43 1069 l -206 1069 l 122 1290 l 172 1151 z "},"ï":{"ha":354,"x_min":-51,"x_max":461,"o":"m 269 515 l 90 585 l 90 881 l 269 1000 l 269 515 m 269 0 l 90 119 l 90 425 l 269 485 l 269 0 m 461 1069 l 282 1069 l 282 1250 l 461 1250 l 461 1069 m 128 1069 l -51 1069 l -51 1250 l 128 1250 l 128 1069 z "},"ñ":{"ha":1032,"x_min":90,"x_max":944,"o":"m 944 515 l 765 585 l 765 860 l 944 981 l 944 515 m 915 1000 l 736 881 l 300 881 l 119 1000 l 915 1000 m 269 585 l 90 515 l 90 981 l 269 860 l 269 585 m 944 0 l 765 119 l 765 425 l 944 485 l 944 0 m 269 119 l 90 0 l 90 485 l 269 425 l 269 119 m 826 1253 l 751 1093 l 631 1242 l 651 1285 l 826 1253 m 708 1076 l 417 1136 l 292 1285 l 593 1222 l 708 1076 m 367 1119 l 346 1076 l 172 1110 l 246 1269 l 367 1119 z "},"ó":{"ha":1032,"x_min":90,"x_max":944,"o":"m 944 515 l 765 585 l 765 860 l 854 919 l 944 860 l 944 515 m 828 939 l 736 881 l 300 881 l 208 939 l 300 1000 l 736 1000 l 828 939 m 944 140 l 854 81 l 765 140 l 765 425 l 944 485 l 944 140 m 269 585 l 90 515 l 90 860 l 179 919 l 269 860 l 269 585 m 269 140 l 179 81 l 90 140 l 90 485 l 269 425 l 269 140 m 828 61 l 736 0 l 300 0 l 208 61 l 300 119 l 736 119 l 828 61 m 754 1247 l 617 1047 l 422 1047 l 558 1247 l 754 1247 z "},"ò":{"ha":1032,"x_min":90,"x_max":944,"o":"m 944 515 l 765 585 l 765 860 l 854 919 l 944 860 l 944 515 m 828 939 l 736 881 l 300 881 l 208 939 l 300 1000 l 736 1000 l 828 939 m 944 140 l 854 81 l 765 140 l 765 425 l 944 485 l 944 140 m 269 585 l 90 515 l 90 860 l 179 919 l 269 860 l 269 585 m 269 140 l 179 81 l 90 140 l 90 485 l 269 425 l 269 140 m 828 61 l 736 0 l 300 0 l 208 61 l 300 119 l 736 119 l 828 61 m 611 1044 l 415 1044 l 279 1244 l 475 1244 l 611 1044 z "},"ô":{"ha":1032,"x_min":90,"x_max":944,"o":"m 944 515 l 765 585 l 765 860 l 854 919 l 944 860 l 944 515 m 828 939 l 736 881 l 300 881 l 208 939 l 300 1000 l 736 1000 l 828 939 m 944 140 l 854 81 l 765 140 l 765 425 l 944 485 l 944 140 m 269 585 l 90 515 l 90 860 l 179 919 l 269 860 l 269 585 m 269 140 l 179 81 l 90 140 l 90 485 l 269 425 l 269 140 m 828 61 l 736 0 l 300 0 l 208 61 l 300 119 l 736 119 l 828 61 m 935 1074 l 671 1074 l 542 1156 l 597 1293 l 935 1074 m 496 1156 l 367 1074 l 118 1074 l 446 1294 l 496 1156 z "},"ö":{"ha":1032,"x_min":90,"x_max":944,"o":"m 944 515 l 765 585 l 765 860 l 854 919 l 944 860 l 944 515 m 828 939 l 736 881 l 300 881 l 208 939 l 300 1000 l 736 1000 l 828 939 m 944 140 l 854 81 l 765 140 l 765 425 l 944 485 l 944 140 m 269 585 l 90 515 l 90 860 l 179 919 l 269 860 l 269 585 m 269 140 l 179 81 l 90 140 l 90 485 l 269 425 l 269 140 m 828 61 l 736 0 l 300 0 l 208 61 l 300 119 l 736 119 l 828 61 m 774 1068 l 594 1068 l 594 1249 l 774 1249 l 774 1068 m 440 1068 l 261 1068 l 261 1249 l 440 1249 l 440 1068 z "},"õ":{"ha":1032,"x_min":90,"x_max":944,"o":"m 944 515 l 765 585 l 765 860 l 854 919 l 944 860 l 944 515 m 828 939 l 736 881 l 300 881 l 208 939 l 300 1000 l 736 1000 l 828 939 m 944 140 l 854 81 l 765 140 l 765 425 l 944 485 l 944 140 m 269 585 l 90 515 l 90 860 l 179 919 l 269 860 l 269 585 m 269 140 l 179 81 l 90 140 l 90 485 l 269 425 l 269 140 m 828 61 l 736 0 l 300 0 l 208 61 l 300 119 l 736 119 l 828 61 m 847 1239 l 772 1079 l 651 1228 l 672 1271 l 847 1239 m 729 1063 l 438 1122 l 313 1271 l 614 1208 l 729 1063 m 388 1106 l 367 1063 l 193 1096 l 267 1256 l 388 1106 z "},"ú":{"ha":1032,"x_min":90,"x_max":944,"o":"m 944 515 l 765 585 l 765 885 l 944 1000 l 944 515 m 269 585 l 90 515 l 90 1000 l 269 885 l 269 585 m 944 140 l 854 81 l 765 140 l 765 425 l 944 485 l 944 140 m 269 140 l 179 81 l 90 140 l 90 485 l 269 425 l 269 140 m 828 61 l 736 0 l 300 0 l 208 61 l 300 119 l 736 119 l 828 61 m 779 1247 l 642 1047 l 447 1047 l 583 1247 l 779 1247 z "},"ù":{"ha":1032,"x_min":90,"x_max":944,"o":"m 944 515 l 765 585 l 765 885 l 944 1000 l 944 515 m 269 585 l 90 515 l 90 1000 l 269 885 l 269 585 m 944 140 l 854 81 l 765 140 l 765 425 l 944 485 l 944 140 m 269 140 l 179 81 l 90 140 l 90 485 l 269 425 l 269 140 m 828 61 l 736 0 l 300 0 l 208 61 l 300 119 l 736 119 l 828 61 m 611 1049 l 415 1049 l 279 1249 l 475 1249 l 611 1049 z "},"û":{"ha":1032,"x_min":90,"x_max":944,"o":"m 944 515 l 765 585 l 765 885 l 944 1000 l 944 515 m 269 585 l 90 515 l 90 1000 l 269 885 l 269 585 m 944 140 l 854 81 l 765 140 l 765 425 l 944 485 l 944 140 m 269 140 l 179 81 l 90 140 l 90 485 l 269 425 l 269 140 m 828 61 l 736 0 l 300 0 l 208 61 l 300 119 l 736 119 l 828 61 m 921 1068 l 657 1068 l 528 1150 l 583 1288 l 921 1068 m 482 1150 l 353 1068 l 104 1068 l 432 1289 l 482 1150 z "},"ü":{"ha":1032,"x_min":90,"x_max":944,"o":"m 944 515 l 765 585 l 765 885 l 944 1000 l 944 515 m 269 585 l 90 515 l 90 1000 l 269 885 l 269 585 m 944 140 l 854 81 l 765 140 l 765 425 l 944 485 l 944 140 m 269 140 l 179 81 l 90 140 l 90 485 l 269 425 l 269 140 m 828 61 l 736 0 l 300 0 l 208 61 l 300 119 l 736 119 l 828 61 m 756 1068 l 576 1068 l 576 1249 l 756 1249 l 756 1068 m 422 1068 l 243 1068 l 243 1249 l 422 1249 l 422 1068 z "},"†":{"ha":1042,"x_min":46,"x_max":1000,"o":"m 611 761 l 524 699 l 432 761 l 432 944 l 524 1000 l 611 944 l 611 761 m 1000 676 l 911 619 l 642 619 l 561 679 l 649 739 l 917 739 l 1000 676 m 496 681 l 400 619 l 132 619 l 46 675 l 133 739 l 403 739 l 496 681 m 611 56 l 519 0 l 432 56 l 432 599 l 524 660 l 611 600 l 611 56 z "},"°":{"ha":761,"x_min":104,"x_max":658,"o":"m 658 835 q 578 704 658 758 q 382 650 497 650 q 186 704 268 650 q 104 835 104 758 q 185 966 104 913 q 382 1019 267 1019 q 578 966 499 1019 q 658 835 658 913 m 569 835 q 515 924 569 888 q 382 960 461 960 q 249 924 303 960 q 194 835 194 888 q 249 746 194 782 q 382 710 303 710 q 515 746 461 710 q 569 835 569 782 z "},"¢":{"ha":967,"x_min":90,"x_max":924,"o":"m 603 1022 l 507 957 l 421 1022 l 421 1122 l 508 1188 l 603 1118 l 603 1022 m 924 1000 l 744 881 l 303 881 l 217 938 l 304 1000 l 407 1000 l 508 926 l 619 1000 l 924 1000 m 269 575 l 90 515 l 90 860 l 179 919 l 269 860 l 269 575 m 921 0 l 611 0 l 504 79 l 399 0 l 300 0 l 213 58 l 303 119 l 742 119 l 921 0 m 269 140 l 179 81 l 90 140 l 90 485 l 269 415 l 269 140 m 596 -117 l 507 -196 l 413 -119 l 413 -19 l 504 40 l 596 -21 l 596 -117 z "},"£":{"ha":1113,"x_min":-46,"x_max":1069,"o":"m 1069 1000 l 888 881 l 453 881 l 363 939 l 453 1000 l 1069 1000 m 425 574 l 332 518 l 244 576 l 244 860 l 336 922 l 425 860 l 425 574 m 796 497 l 707 444 l 454 444 l 363 497 l 458 565 l 707 565 l 796 497 m 307 497 l 208 444 l 44 444 l -46 499 l 49 565 l 204 565 l 307 497 m 1069 0 l 246 0 l 453 119 l 888 119 l 1069 0 m 424 142 l 240 42 l 240 418 l 336 474 l 424 418 l 424 142 z "},"§":{"ha":1019,"x_min":90,"x_max":932,"o":"m 932 651 l 840 592 l 753 651 l 753 861 l 838 921 l 932 863 l 932 651 m 811 938 l 719 881 l 303 881 l 213 938 l 303 1000 l 721 1000 l 811 938 m 811 568 l 708 503 l 319 503 l 213 568 l 288 624 l 738 624 l 811 568 m 932 208 l 840 149 l 753 208 l 753 483 l 838 543 l 932 485 l 932 208 m 275 207 l 183 147 l 90 208 l 90 483 l 183 543 l 275 483 l 275 207 m 811 119 l 736 72 l 286 72 l 211 119 l 319 190 l 704 190 l 811 119 m 811 -251 l 721 -304 l 303 -304 l 211 -251 l 304 -186 l 719 -186 l 811 -251 m 275 -169 l 183 -229 l 90 -169 l 90 39 l 183 97 l 275 38 l 275 -169 z "},"•":{"ha":761,"x_min":104,"x_max":658,"o":"m 658 500 q 578 369 658 424 q 382 315 497 315 q 185 369 267 315 q 104 500 104 422 q 185 631 104 578 q 382 685 267 685 q 578 631 499 685 q 658 500 658 578 z "},"¶":{"ha":1100,"x_min":99,"x_max":953,"o":"m 953 585 l 774 515 l 774 981 l 953 860 l 953 585 m 694 1000 l 513 881 l 307 881 l 215 939 l 307 1000 l 694 1000 m 724 515 l 544 585 l 544 860 l 724 981 l 724 515 m 278 585 l 99 515 l 99 860 l 188 919 l 278 860 l 278 585 m 953 119 l 774 0 l 774 485 l 953 425 l 953 119 m 682 500 l 513 444 l 307 444 l 138 500 l 307 565 l 513 565 l 682 500 m 724 0 l 544 119 l 544 425 l 724 485 l 724 0 z "},"®":{"ha":1794,"x_min":113,"x_max":1663,"o":"m 1663 504 q 1436 139 1663 290 q 888 -12 1210 -12 q 340 139 568 -12 q 113 504 113 290 q 340 869 113 718 q 888 1021 567 1021 q 1435 869 1207 1021 q 1663 504 1663 718 m 1575 504 q 1374 828 1575 693 q 888 963 1172 963 q 401 829 601 963 q 200 504 200 696 q 401 181 200 315 q 888 46 603 46 q 1374 179 1174 46 q 1575 504 1575 313 m 1150 510 l 1036 554 l 1036 729 l 1094 768 l 1150 729 l 1150 510 m 1078 781 l 1017 743 l 740 743 l 624 819 l 1017 819 l 1078 781 m 719 554 l 604 510 l 604 807 l 719 729 l 719 554 m 1125 500 l 1017 464 l 740 464 l 632 500 l 740 542 l 1017 542 l 1125 500 m 1236 179 l 1036 268 l 896 451 l 1025 451 l 1236 179 m 719 269 l 604 192 l 604 490 l 719 451 l 719 269 z "},"©":{"ha":1794,"x_min":113,"x_max":1663,"o":"m 1663 504 q 1436 139 1663 290 q 888 -12 1210 -12 q 340 139 568 -12 q 113 504 113 290 q 340 869 113 718 q 888 1021 567 1021 q 1435 869 1207 1021 q 1663 504 1663 718 m 1575 504 q 1374 828 1575 693 q 888 963 1172 963 q 401 829 601 963 q 200 504 200 696 q 401 181 200 315 q 888 46 603 46 q 1374 179 1174 46 q 1575 504 1575 313 m 1104 803 l 992 726 l 713 726 l 654 764 l 713 803 l 1104 803 m 692 531 l 579 493 l 579 713 l 636 751 l 692 713 l 692 531 m 1104 163 l 713 163 l 654 201 l 713 240 l 992 240 l 1104 163 m 692 253 l 636 214 l 579 253 l 579 474 l 692 429 l 692 253 z "},"™":{"ha":1525,"x_min":104,"x_max":1424,"o":"m 1424 500 l 1313 500 l 1236 797 l 1232 814 l 1229 822 q 1228 839 1228 833 q 1232 869 1228 853 l 1213 824 l 1203 807 l 1200 800 l 992 488 l 961 488 l 753 800 l 749 808 l 740 824 l 721 869 q 725 839 725 853 q 724 822 724 828 l 721 814 l 717 797 l 640 500 l 529 500 l 678 1015 l 721 1015 l 944 683 l 957 664 l 963 653 q 971 628 967 643 q 975 603 975 614 q 1007 683 981 643 l 1232 1015 l 1275 1015 l 1424 500 m 554 935 l 383 935 l 383 500 l 274 500 l 274 935 l 104 935 l 104 1000 l 554 1000 l 554 935 z "},"´":{"ha":329,"x_min":0,"x_max":332,"o":"m 332 704 l 194 504 l 0 504 l 136 704 l 332 704 z "},"¨":{"ha":511,"x_min":0,"x_max":513,"o":"m 513 1057 l 333 1057 l 333 1238 l 513 1238 l 513 1057 m 179 1057 l 0 1057 l 0 1238 l 179 1238 l 179 1057 z "},"Æ":{"ha":1650,"x_min":90,"x_max":1607,"o":"m 1607 1000 l 1428 881 l 979 881 l 865 957 l 740 881 l 303 881 l 124 1000 l 1607 1000 m 1578 501 l 1404 444 l 979 444 l 899 506 l 986 565 l 1411 565 l 1578 501 m 949 586 l 861 525 l 767 588 l 767 863 l 861 924 l 949 863 l 949 586 m 274 586 l 90 517 l 90 981 l 274 860 l 274 586 m 1607 0 l 808 0 l 990 119 l 1429 119 l 1607 0 m 832 506 l 738 444 l 300 444 l 132 501 l 303 565 l 740 565 l 832 506 m 949 129 l 769 10 l 769 425 l 861 485 l 949 425 l 949 129 m 271 118 l 90 0 l 90 486 l 271 424 l 271 118 z "},"Ø":{"ha":1042,"x_min":90,"x_max":957,"o":"m 794 964 l 724 881 l 307 881 l 217 939 l 307 1000 l 749 1000 l 794 964 m 957 517 l 774 585 l 774 635 l 957 842 l 957 517 m 946 140 l 857 81 l 767 140 l 767 425 l 946 485 l 946 140 m 957 901 l 182 0 l 90 0 l 90 101 l 869 1000 l 957 1000 l 957 901 m 271 585 l 92 515 l 92 860 l 182 919 l 271 860 l 271 585 m 275 365 l 92 156 l 92 483 l 275 426 l 275 365 m 829 60 l 742 0 l 304 0 l 254 35 l 333 119 l 744 118 l 829 60 z "},"±":{"ha":1142,"x_min":92,"x_max":1054,"o":"m 1054 365 l 644 365 l 644 196 l 503 196 l 503 365 l 92 365 l 92 460 l 503 460 l 503 629 l 644 629 l 644 460 l 1054 460 l 1054 365 m 1054 26 l 92 26 l 92 121 l 1054 121 l 1054 26 z "},"¥":{"ha":1058,"x_min":46,"x_max":1015,"o":"m 949 515 l 769 585 l 769 881 l 949 1000 l 949 515 m 1015 351 l 974 315 l 678 315 l 678 397 l 979 397 l 1015 351 m 274 585 l 94 515 l 94 1000 l 274 881 l 274 585 m 907 500 l 738 444 l 303 444 l 133 500 l 303 565 l 738 565 l 907 500 m 1015 219 l 971 179 l 678 179 l 678 263 l 974 263 l 1015 219 m 617 69 l 521 0 l 433 69 l 433 418 l 617 418 l 617 69 m 388 314 l 90 314 l 46 353 l 96 397 l 388 397 l 388 314 m 388 178 l 86 178 l 49 215 l 88 260 l 388 260 l 388 178 z "},"ª":{"ha":921,"x_min":106,"x_max":819,"o":"m 819 547 l 699 547 l 699 653 l 692 642 q 590 565 661 594 q 433 536 519 536 q 308 553 371 536 q 179 619 231 575 q 111 725 128 663 q 106 774 106 746 q 106 797 106 785 q 111 822 106 801 q 228 963 136 910 q 438 1015 321 1015 q 499 1011 467 1015 q 682 922 621 993 l 692 911 l 699 901 l 699 1000 l 819 1000 l 819 547 m 819 403 l 128 403 l 128 478 l 819 478 l 819 403 m 694 740 q 701 775 701 758 q 694 811 701 790 q 648 883 682 853 q 565 928 614 913 q 464 943 515 943 q 315 906 379 943 q 233 806 250 868 l 229 775 q 231 754 229 760 q 236 743 235 746 q 336 636 254 672 q 465 608 399 608 q 599 638 536 608 q 660 681 633 654 q 694 740 686 708 z "},"º":{"ha":924,"x_min":104,"x_max":822,"o":"m 815 729 q 719 604 793 654 q 536 539 646 554 q 463 533 504 533 q 418 533 440 533 q 390 539 399 538 q 207 604 281 554 q 111 729 133 654 q 106 753 107 749 q 104 778 104 761 q 111 825 104 800 q 235 967 138 913 q 458 1022 333 1022 q 607 1001 532 1022 q 815 825 778 953 q 822 778 822 800 q 819 745 822 756 q 815 729 817 735 m 811 403 l 117 403 l 117 478 l 811 478 l 811 403 m 699 778 q 694 810 699 799 q 614 908 681 871 q 463 946 547 946 q 367 932 413 946 q 265 871 303 913 q 228 778 228 829 q 232 747 228 757 q 292 659 244 694 q 413 613 340 624 q 463 608 438 608 q 629 656 560 608 q 699 778 699 704 z "},"æ":{"ha":1650,"x_min":90,"x_max":1607,"o":"m 1607 1000 l 1428 881 l 979 881 l 865 957 l 740 881 l 303 881 l 124 1000 l 1607 1000 m 1578 501 l 1404 444 l 979 444 l 899 506 l 986 565 l 1411 565 l 1578 501 m 949 586 l 861 525 l 767 588 l 767 863 l 861 924 l 949 863 l 949 586 m 274 586 l 90 517 l 90 981 l 274 860 l 274 586 m 1607 0 l 808 0 l 990 119 l 1429 119 l 1607 0 m 832 506 l 738 444 l 300 444 l 132 501 l 303 565 l 740 565 l 832 506 m 949 129 l 769 10 l 769 425 l 861 485 l 949 425 l 949 129 m 271 118 l 90 0 l 90 486 l 271 424 l 271 118 z "},"ø":{"ha":1042,"x_min":90,"x_max":957,"o":"m 794 964 l 724 881 l 307 881 l 217 939 l 307 1000 l 749 1000 l 794 964 m 957 517 l 774 585 l 774 635 l 957 842 l 957 517 m 946 140 l 857 81 l 767 140 l 767 425 l 946 485 l 946 140 m 957 901 l 182 0 l 90 0 l 90 101 l 869 1000 l 957 1000 l 957 901 m 271 585 l 92 515 l 92 860 l 182 919 l 271 860 l 271 585 m 275 365 l 92 156 l 92 483 l 275 426 l 275 365 m 829 60 l 742 0 l 304 0 l 254 35 l 333 119 l 744 118 l 829 60 z "},"¿":{"ha":871,"x_min":90,"x_max":828,"o":"m 644 785 l 465 785 l 465 1000 l 644 1000 l 644 785 m 644 454 l 463 569 l 463 718 l 644 718 l 644 454 m 607 435 l 299 435 l 132 497 l 300 556 l 425 556 l 607 435 m 269 140 l 179 81 l 90 140 l 90 485 l 269 415 l 269 140 m 828 61 l 736 0 l 300 0 l 208 61 l 300 119 l 736 119 l 828 61 z "},"¡":{"ha":354,"x_min":90,"x_max":269,"o":"m 269 785 l 90 785 l 90 1000 l 269 1000 l 269 785 m 269 119 l 90 0 l 90 706 l 269 615 l 269 119 z "},"¬":{"ha":1667,"x_min":54,"x_max":1614,"o":"m 1614 -115 l 54 -115 l 54 947 l 1614 947 l 1614 -115 m 1482 354 l 1482 379 q 1460 379 1467 379 q 1419 386 1431 379 q 1408 424 1408 393 l 1408 771 q 1408 799 1408 785 q 1407 825 1407 813 q 1420 869 1407 858 q 1482 879 1433 879 l 1482 904 l 1260 904 l 1260 879 q 1322 869 1311 879 q 1333 818 1333 860 q 1333 785 1333 797 l 1333 426 q 1320 388 1333 396 q 1279 379 1307 379 q 1260 379 1267 379 l 1260 354 l 1482 354 m 1585 38 q 1476 129 1585 107 q 1368 199 1368 151 q 1390 245 1368 228 q 1442 263 1411 263 q 1485 252 1464 263 q 1522 222 1506 242 q 1528 199 1526 203 q 1529 174 1529 190 l 1551 172 q 1556 224 1551 196 q 1561 268 1560 253 q 1450 286 1503 286 q 1351 261 1389 286 q 1307 172 1307 231 q 1415 78 1307 99 q 1522 7 1522 57 q 1497 -47 1522 -28 q 1436 -65 1472 -65 q 1357 -44 1378 -65 q 1336 33 1336 -24 l 1314 33 q 1311 -19 1314 18 q 1308 -60 1308 -56 q 1340 -83 1308 -74 q 1422 -92 1371 -92 q 1532 -61 1488 -92 q 1585 38 1585 -25 m 1307 256 l 1188 256 q 1189 323 1188 289 q 1194 388 1190 357 q 1253 449 1233 419 q 1278 529 1278 486 q 1118 665 1278 651 q 958 768 958 679 q 996 850 958 821 q 1089 879 1033 879 q 1150 869 1115 879 q 1203 843 1185 858 q 1210 796 1210 828 q 1210 768 1210 776 l 1235 768 q 1237 828 1235 810 q 1247 879 1239 846 q 1093 908 1174 908 q 951 868 1007 908 q 889 739 889 822 q 1049 603 889 618 q 1210 499 1210 588 q 1165 410 1210 440 q 1060 379 1121 379 q 988 390 1024 379 q 929 431 939 406 l 928 497 l 901 497 q 901 451 901 467 q 901 432 901 439 q 897 376 901 404 q 1044 347 968 347 q 1115 356 1082 347 q 1122 256 1122 300 q 1060 229 1096 240 l 1060 213 l 1122 213 l 1122 -6 q 1211 -92 1122 -92 q 1236 -89 1222 -92 q 1261 -83 1250 -86 l 1299 -36 l 1288 -21 q 1243 -42 1269 -42 q 1202 -22 1217 -42 q 1188 51 1188 -3 q 1188 69 1188 64 l 1188 219 q 1223 221 1199 219 q 1258 222 1247 222 q 1299 218 1279 222 l 1307 256 m 1114 -83 l 1114 -60 q 1063 -53 1074 -60 q 1051 -21 1051 -46 q 1053 25 1053 7 l 1053 153 q 924 286 1053 286 q 854 265 889 286 q 794 213 819 244 q 796 250 796 238 q 789 286 796 272 q 725 264 757 272 q 660 256 693 256 l 660 232 q 683 233 675 233 q 713 228 701 233 q 725 210 725 224 l 725 -29 q 718 -53 725 -44 q 689 -61 711 -61 q 660 -60 669 -60 l 660 -83 l 860 -83 l 858 -60 q 803 -48 817 -60 q 790 -4 790 -36 q 792 28 790 4 q 793 69 793 53 q 793 108 793 96 q 807 197 793 172 q 894 236 829 236 q 968 204 947 236 q 985 118 985 178 l 985 43 q 985 26 985 32 q 979 -83 985 -35 l 1114 -83 m 944 879 l 944 904 l 779 904 l 779 879 q 824 876 799 879 q 849 861 849 872 q 796 647 849 826 q 740 467 768 557 l 579 908 l 560 908 l 390 471 q 346 663 368 564 q 307 844 324 761 q 303 858 301 853 q 324 876 303 872 q 354 879 344 879 q 371 879 367 879 l 371 904 l 172 904 l 172 879 q 217 870 208 879 q 235 821 226 861 q 265 699 249 761 q 310 492 304 553 q 228 447 278 492 q 164 367 179 401 q 156 338 158 353 q 154 296 154 322 q 154 254 154 267 l 99 226 l 99 213 l 154 218 l 156 6 q 144 -49 156 -39 q 86 -60 132 -60 l 86 -83 l 301 -83 l 301 -60 q 278 -60 285 -60 q 243 -57 251 -60 q 221 -3 221 -49 l 222 219 q 271 219 246 219 q 321 218 296 218 l 328 253 l 325 256 l 222 256 l 222 306 q 222 340 222 329 q 234 410 222 385 q 283 435 246 435 q 324 422 307 435 l 339 347 l 379 347 q 458 564 417 458 q 549 779 489 643 q 629 565 561 743 q 704 347 681 429 l 746 347 q 821 622 767 432 q 904 874 885 844 q 944 879 914 879 m 676 111 q 626 238 676 189 q 497 286 576 286 q 356 236 413 286 q 299 101 299 186 q 346 -36 299 19 q 474 -92 393 -92 q 619 -35 563 -92 q 676 111 676 22 m 603 78 q 581 -18 603 21 q 499 -65 553 -65 q 401 3 435 -65 q 375 128 375 56 q 401 222 375 182 q 479 263 428 263 q 578 200 546 263 q 603 78 603 151 z "},"ƒ":{"ha":1136,"x_min":46,"x_max":1092,"o":"m 1092 1000 l 890 881 l 454 881 l 299 1000 l 1092 1000 m 421 860 l 371 585 l 178 515 l 263 981 l 421 860 m 817 500 l 638 444 l 375 444 l 217 500 l 396 565 l 658 565 l 817 500 m 342 425 l 249 -81 l 46 -200 l 174 485 l 342 425 z "},"«":{"ha":828,"x_min":46,"x_max":783,"o":"m 783 650 l 571 340 l 378 340 l 588 650 l 783 650 m 454 650 l 240 340 l 46 340 l 257 650 l 454 650 m 782 0 l 586 0 l 378 307 l 571 307 l 782 0 m 450 0 l 254 0 l 46 307 l 240 307 l 450 0 z "},"»":{"ha":828,"x_min":46,"x_max":783,"o":"m 783 343 l 592 343 l 379 650 l 578 650 l 783 343 m 454 343 l 261 343 l 49 650 l 246 650 l 454 343 m 783 310 l 575 0 l 378 0 l 592 310 l 783 310 m 453 310 l 244 0 l 46 0 l 261 310 l 453 310 z "},"…":{"ha":1190,"x_min":86,"x_max":1107,"o":"m 1107 63 q 1074 10 1107 32 q 994 -12 1040 -12 q 915 9 947 -12 q 882 63 882 31 q 915 116 882 94 q 994 138 947 138 q 1074 117 1042 138 q 1107 63 1107 96 m 708 63 q 676 9 708 31 q 596 -12 643 -12 q 516 9 549 -12 q 483 63 483 31 q 516 116 483 94 q 596 138 549 138 q 676 116 643 138 q 708 63 708 94 m 311 63 q 278 9 311 31 q 199 -12 246 -12 q 119 9 151 -12 q 86 63 86 31 q 119 116 86 94 q 199 138 151 138 q 278 116 246 138 q 311 63 311 94 z "}," ":{"ha":521,"x_min":0,"x_max":0,"o":""},"À":{"ha":1032,"x_min":90,"x_max":944,"o":"m 944 515 l 765 585 l 765 860 l 944 981 l 944 515 m 915 1000 l 736 881 l 300 881 l 119 1000 l 915 1000 m 269 585 l 90 515 l 90 981 l 269 860 l 269 585 m 904 500 l 736 444 l 300 444 l 132 500 l 300 565 l 736 565 l 904 500 m 944 0 l 765 119 l 765 425 l 944 485 l 944 0 m 269 119 l 90 0 l 90 485 l 269 425 l 269 119 m 567 1047 l 371 1047 l 235 1247 l 431 1247 l 567 1047 z "},"Ã":{"ha":1032,"x_min":90,"x_max":944,"o":"m 944 515 l 765 585 l 765 860 l 944 981 l 944 515 m 915 1000 l 736 881 l 300 881 l 119 1000 l 915 1000 m 269 585 l 90 515 l 90 981 l 269 860 l 269 585 m 904 500 l 736 444 l 300 444 l 132 500 l 300 565 l 736 565 l 904 500 m 944 0 l 765 119 l 765 425 l 944 485 l 944 0 m 269 119 l 90 0 l 90 485 l 269 425 l 269 119 m 846 1261 l 771 1101 l 650 1250 l 671 1293 l 846 1261 m 728 1085 l 436 1144 l 311 1293 l 613 1231 l 728 1085 m 386 1128 l 365 1085 l 192 1118 l 265 1278 l 386 1128 z "},"Õ":{"ha":1032,"x_min":90,"x_max":944,"o":"m 944 515 l 765 585 l 765 860 l 854 919 l 944 860 l 944 515 m 828 939 l 736 881 l 300 881 l 208 939 l 300 1000 l 736 1000 l 828 939 m 944 140 l 854 81 l 765 140 l 765 425 l 944 485 l 944 140 m 269 585 l 90 515 l 90 860 l 179 919 l 269 860 l 269 585 m 269 140 l 179 81 l 90 140 l 90 485 l 269 425 l 269 140 m 828 61 l 736 0 l 300 0 l 208 61 l 300 119 l 736 119 l 828 61 m 819 1253 l 744 1093 l 624 1242 l 644 1285 l 819 1253 m 701 1076 l 410 1136 l 285 1285 l 586 1222 l 701 1076 m 360 1119 l 339 1076 l 165 1110 l 239 1269 l 360 1119 z "},"Œ":{"ha":1657,"x_min":90,"x_max":1613,"o":"m 1613 1000 l 1432 881 l 975 881 l 867 961 l 740 881 l 304 881 l 213 943 l 307 1000 l 1613 1000 m 1578 501 l 1404 444 l 979 444 l 899 506 l 986 565 l 1411 565 l 1578 501 m 949 586 l 861 525 l 767 588 l 767 863 l 861 924 l 949 863 l 949 586 m 946 128 l 861 68 l 765 129 l 765 429 l 863 490 l 946 428 l 946 128 m 274 590 l 90 519 l 90 865 l 182 921 l 274 864 l 274 590 m 1611 0 l 299 0 l 208 50 l 321 119 l 736 119 l 858 33 l 988 119 l 1433 119 l 1611 0 m 274 119 l 182 65 l 90 119 l 90 490 l 274 426 l 274 119 z "},"œ":{"ha":1657,"x_min":90,"x_max":1613,"o":"m 1613 1000 l 1432 881 l 975 881 l 867 961 l 740 881 l 304 881 l 213 943 l 307 1000 l 1613 1000 m 1578 501 l 1404 444 l 979 444 l 899 506 l 986 565 l 1411 565 l 1578 501 m 949 586 l 861 525 l 767 588 l 767 863 l 861 924 l 949 863 l 949 586 m 946 128 l 861 68 l 765 129 l 765 429 l 863 490 l 946 428 l 946 128 m 274 590 l 90 519 l 90 865 l 182 921 l 274 864 l 274 590 m 1611 0 l 299 0 l 208 50 l 321 119 l 736 119 l 858 33 l 988 119 l 1433 119 l 1611 0 m 274 119 l 182 65 l 90 119 l 90 490 l 274 426 l 274 119 z "},"–":{"ha":1032,"x_min":90,"x_max":944,"o":"m 944 560 l 857 440 l 90 440 l 178 560 l 944 560 z "},"—":{"ha":1844,"x_min":90,"x_max":1799,"o":"m 944 560 l 857 440 l 90 440 l 178 560 l 944 560 m 1799 560 l 1711 440 l 944 440 l 1032 560 l 1799 560 z "},"“":{"ha":688,"x_min":46,"x_max":644,"o":"m 644 1000 l 546 656 l 361 656 l 458 1000 l 644 1000 m 329 1000 l 232 656 l 46 656 l 144 1000 l 329 1000 z "},"”":{"ha":688,"x_min":46,"x_max":644,"o":"m 644 1000 l 546 656 l 361 656 l 458 1000 l 644 1000 m 329 1000 l 232 656 l 46 656 l 144 1000 l 329 1000 z "},"‘":{"ha":375,"x_min":46,"x_max":329,"o":"m 329 1000 l 232 656 l 46 656 l 144 1000 l 329 1000 z "},"’":{"ha":375,"x_min":46,"x_max":329,"o":"m 329 1000 l 232 656 l 46 656 l 144 1000 l 329 1000 z "},"÷":{"ha":713,"x_min":46,"x_max":669,"o":"m 669 419 l 549 300 l 46 300 l 167 419 l 669 419 m 453 474 l 274 474 l 274 679 l 453 679 l 453 474 m 453 29 l 274 29 l 274 244 l 453 244 l 453 29 z "},"ÿ":{"ha":1032,"x_min":90,"x_max":944,"o":"m 944 515 l 765 585 l 765 881 l 944 1000 l 944 515 m 269 585 l 90 515 l 90 1000 l 269 881 l 269 585 m 904 500 l 736 444 l 300 444 l 132 500 l 300 565 l 736 565 l 904 500 m 613 69 l 517 0 l 429 69 l 429 418 l 613 418 l 613 69 m 754 1069 l 575 1069 l 575 1250 l 754 1250 l 754 1069 m 421 1069 l 242 1069 l 242 1250 l 421 1250 l 421 1069 z "},"Ÿ":{"ha":1032,"x_min":90,"x_max":944,"o":"m 944 515 l 765 585 l 765 881 l 944 1000 l 944 515 m 269 585 l 90 515 l 90 1000 l 269 881 l 269 585 m 904 500 l 736 444 l 300 444 l 132 500 l 300 565 l 736 565 l 904 500 m 613 69 l 517 0 l 429 69 l 429 418 l 613 418 l 613 69 m 789 1069 l 610 1069 l 610 1250 l 789 1250 l 789 1069 m 456 1069 l 276 1069 l 276 1250 l 456 1250 l 456 1069 z "},"∕":{"ha":496,"x_min":-75,"x_max":588,"o":"m 588 1000 l 304 474 l 244 594 l 463 1000 l 588 1000 m 290 444 l 50 0 l -75 0 l 165 444 l 290 444 z "},"¤":{"ha":949,"x_min":104,"x_max":846,"o":"m 846 701 l 715 618 q 771 503 771 567 q 713 383 771 438 l 844 296 l 829 285 l 815 275 l 779 254 l 650 342 q 475 303 574 303 q 300 343 375 303 l 165 256 q 133 274 149 263 q 104 297 118 285 l 238 385 q 178 501 178 436 q 236 617 178 567 l 107 700 l 133 724 l 150 735 l 165 744 l 299 658 q 476 697 376 697 q 653 658 575 697 l 782 746 q 846 701 817 729 m 615 406 q 675 500 675 444 q 615 594 675 556 q 551 624 586 614 q 475 633 515 633 q 334 594 394 633 q 274 500 274 554 q 333 406 274 446 q 398 376 361 386 q 475 367 435 367 q 615 406 558 367 z "},"‹":{"ha":500,"x_min":46,"x_max":454,"o":"m 454 650 l 240 340 l 46 340 l 257 650 l 454 650 m 450 0 l 254 0 l 46 307 l 240 307 l 450 0 z "},"›":{"ha":500,"x_min":46,"x_max":454,"o":"m 454 343 l 261 343 l 49 650 l 246 650 l 454 343 m 453 310 l 244 0 l 46 0 l 261 310 l 453 310 z "},"‡":{"ha":1042,"x_min":46,"x_max":1000,"o":"m 611 761 l 524 700 l 432 763 l 432 946 l 524 1000 l 611 946 l 611 761 m 1000 676 l 911 619 l 642 619 l 561 681 l 649 740 l 917 740 l 1000 676 m 496 681 l 400 619 l 132 619 l 46 676 l 133 740 l 403 740 l 496 681 m 611 419 l 524 358 l 432 421 l 432 604 l 524 658 l 611 604 l 611 419 m 1000 335 l 911 278 l 642 278 l 561 339 l 649 399 l 917 399 l 1000 335 m 496 339 l 400 278 l 132 278 l 46 335 l 133 399 l 403 399 l 496 339 m 611 54 l 519 0 l 432 54 l 432 258 l 524 318 l 611 258 l 611 54 z "},"·":{"ha":269,"x_min":46,"x_max":225,"o":"m 225 396 l 46 396 l 46 611 l 225 611 l 225 396 z "},"‚":{"ha":299,"x_min":-29,"x_max":254,"o":"m 254 215 l 157 -131 l -29 -131 l 69 215 l 254 215 z "},"„":{"ha":613,"x_min":-29,"x_max":569,"o":"m 569 215 l 471 -131 l 286 -131 l 383 215 l 569 215 m 254 215 l 157 -131 l -29 -131 l 69 215 l 254 215 z "},"‰":{"ha":2063,"x_min":46,"x_max":2019,"o":"m 1908 457 l 1829 392 l 1653 392 l 1574 456 l 1657 513 l 1829 513 l 1908 457 m 2019 144 l 1936 85 l 1858 144 l 1858 379 l 1936 440 l 2019 381 l 2019 144 m 1190 1000 l 753 474 l 692 594 l 1032 1000 l 1190 1000 m 1628 143 l 1549 83 l 1463 144 l 1463 379 l 1549 439 l 1628 379 l 1628 143 m 1908 63 l 1828 0 l 1654 0 l 1571 63 l 1653 119 l 1829 119 l 1908 63 m 1238 457 l 1158 392 l 982 392 l 903 456 l 983 513 l 1158 513 l 1238 457 m 492 938 l 413 881 l 236 881 l 157 938 l 238 1000 l 413 1000 l 492 938 m 1349 144 l 1265 85 l 1188 144 l 1188 379 l 1263 440 l 1349 381 l 1349 144 m 603 626 l 519 565 l 442 625 l 442 861 l 519 921 l 603 863 l 603 626 m 957 143 l 878 83 l 792 144 l 792 379 l 878 439 l 957 379 l 957 143 m 211 625 l 132 565 l 46 625 l 46 861 l 132 919 l 211 860 l 211 625 m 492 544 l 411 490 l 238 490 l 154 544 l 236 608 l 413 608 l 492 544 m 1238 63 l 1157 0 l 982 0 l 900 63 l 982 119 l 1158 119 l 1238 63 m 729 444 l 358 0 l 203 0 l 574 444 l 729 444 z "},"Â":{"ha":1032,"x_min":90,"x_max":944,"o":"m 944 515 l 765 585 l 765 860 l 944 981 l 944 515 m 915 1000 l 736 881 l 300 881 l 119 1000 l 915 1000 m 269 585 l 90 515 l 90 981 l 269 860 l 269 585 m 904 500 l 736 444 l 300 444 l 132 500 l 300 565 l 736 565 l 904 500 m 944 0 l 765 119 l 765 425 l 944 485 l 944 0 m 269 119 l 90 0 l 90 485 l 269 425 l 269 119 m 925 1072 l 661 1072 l 532 1154 l 588 1292 l 925 1072 m 486 1154 l 357 1072 l 108 1072 l 436 1293 l 486 1154 z "},"Ê":{"ha":928,"x_min":90,"x_max":918,"o":"m 915 1000 l 736 881 l 300 881 l 119 1000 l 915 1000 m 269 585 l 90 515 l 90 981 l 269 860 l 269 585 m 904 500 l 736 444 l 300 444 l 132 500 l 300 565 l 736 565 l 904 500 m 915 0 l 119 0 l 300 119 l 736 119 l 915 0 m 269 140 l 90 19 l 90 485 l 269 425 l 269 140 m 918 1072 l 654 1072 l 525 1154 l 581 1292 l 918 1072 m 479 1154 l 350 1072 l 101 1072 l 429 1293 l 479 1154 z "},"Á":{"ha":1032,"x_min":90,"x_max":944,"o":"m 944 515 l 765 585 l 765 860 l 944 981 l 944 515 m 915 1000 l 736 881 l 300 881 l 119 1000 l 915 1000 m 269 585 l 90 515 l 90 981 l 269 860 l 269 585 m 904 500 l 736 444 l 300 444 l 132 500 l 300 565 l 736 565 l 904 500 m 944 0 l 765 119 l 765 425 l 944 485 l 944 0 m 269 119 l 90 0 l 90 485 l 269 425 l 269 119 m 738 1254 l 600 1054 l 406 1054 l 542 1254 l 738 1254 z "},"Ë":{"ha":928,"x_min":90,"x_max":915,"o":"m 915 1000 l 736 881 l 300 881 l 119 1000 l 915 1000 m 269 585 l 90 515 l 90 981 l 269 860 l 269 585 m 904 500 l 736 444 l 300 444 l 132 500 l 300 565 l 736 565 l 904 500 m 915 0 l 119 0 l 300 119 l 736 119 l 915 0 m 269 140 l 90 19 l 90 485 l 269 425 l 269 140 m 767 1067 l 588 1067 l 588 1247 l 767 1247 l 767 1067 m 433 1067 l 254 1067 l 254 1247 l 433 1247 l 433 1067 z "},"È":{"ha":928,"x_min":90,"x_max":915,"o":"m 915 1000 l 736 881 l 300 881 l 119 1000 l 915 1000 m 269 585 l 90 515 l 90 981 l 269 860 l 269 585 m 904 500 l 736 444 l 300 444 l 132 500 l 300 565 l 736 565 l 904 500 m 915 0 l 119 0 l 300 119 l 736 119 l 915 0 m 269 140 l 90 19 l 90 485 l 269 425 l 269 140 m 557 1047 l 361 1047 l 225 1247 l 421 1247 l 557 1047 z "},"Í":{"ha":354,"x_min":76,"x_max":408,"o":"m 269 515 l 90 585 l 90 881 l 269 1000 l 269 515 m 269 0 l 90 119 l 90 425 l 269 485 l 269 0 m 408 1247 l 271 1047 l 76 1047 l 213 1247 l 408 1247 z "},"Î":{"ha":354,"x_min":-178,"x_max":639,"o":"m 269 515 l 90 585 l 90 881 l 269 1000 l 269 515 m 269 0 l 90 119 l 90 425 l 269 485 l 269 0 m 639 1069 l 375 1069 l 246 1151 l 301 1289 l 639 1069 m 200 1151 l 71 1069 l -178 1069 l 150 1290 l 200 1151 z "},"Ï":{"ha":354,"x_min":-51,"x_max":461,"o":"m 269 515 l 90 585 l 90 881 l 269 1000 l 269 515 m 269 0 l 90 119 l 90 425 l 269 485 l 269 0 m 461 1069 l 282 1069 l 282 1250 l 461 1250 l 461 1069 m 128 1069 l -51 1069 l -51 1250 l 128 1250 l 128 1069 z "},"Ì":{"ha":354,"x_min":-49,"x_max":283,"o":"m 269 515 l 90 585 l 90 881 l 269 1000 l 269 515 m 269 0 l 90 119 l 90 425 l 269 485 l 269 0 m 283 1047 l 88 1047 l -49 1247 l 147 1247 l 283 1047 z "},"Ó":{"ha":1032,"x_min":90,"x_max":944,"o":"m 944 515 l 765 585 l 765 860 l 854 919 l 944 860 l 944 515 m 828 939 l 736 881 l 300 881 l 208 939 l 300 1000 l 736 1000 l 828 939 m 944 140 l 854 81 l 765 140 l 765 425 l 944 485 l 944 140 m 269 585 l 90 515 l 90 860 l 179 919 l 269 860 l 269 585 m 269 140 l 179 81 l 90 140 l 90 485 l 269 425 l 269 140 m 828 61 l 736 0 l 300 0 l 208 61 l 300 119 l 736 119 l 828 61 m 740 1247 l 603 1047 l 408 1047 l 544 1247 l 740 1247 z "},"Ô":{"ha":1032,"x_min":90,"x_max":944,"o":"m 944 515 l 765 585 l 765 860 l 854 919 l 944 860 l 944 515 m 828 939 l 736 881 l 300 881 l 208 939 l 300 1000 l 736 1000 l 828 939 m 944 140 l 854 81 l 765 140 l 765 425 l 944 485 l 944 140 m 269 585 l 90 515 l 90 860 l 179 919 l 269 860 l 269 585 m 269 140 l 179 81 l 90 140 l 90 485 l 269 425 l 269 140 m 828 61 l 736 0 l 300 0 l 208 61 l 300 119 l 736 119 l 828 61 m 942 1074 l 678 1074 l 549 1156 l 604 1293 l 942 1074 m 503 1156 l 374 1074 l 125 1074 l 453 1294 l 503 1156 z "},"":{"ha":1389,"x_min":0,"x_max":0,"o":""},"Ò":{"ha":1032,"x_min":90,"x_max":944,"o":"m 944 515 l 765 585 l 765 860 l 854 919 l 944 860 l 944 515 m 828 939 l 736 881 l 300 881 l 208 939 l 300 1000 l 736 1000 l 828 939 m 944 140 l 854 81 l 765 140 l 765 425 l 944 485 l 944 140 m 269 585 l 90 515 l 90 860 l 179 919 l 269 860 l 269 585 m 269 140 l 179 81 l 90 140 l 90 485 l 269 425 l 269 140 m 828 61 l 736 0 l 300 0 l 208 61 l 300 119 l 736 119 l 828 61 m 611 1044 l 415 1044 l 279 1244 l 475 1244 l 611 1044 z "},"Ú":{"ha":1032,"x_min":90,"x_max":944,"o":"m 944 515 l 765 585 l 765 885 l 944 1000 l 944 515 m 269 585 l 90 515 l 90 1000 l 269 885 l 269 585 m 944 140 l 854 81 l 765 140 l 765 425 l 944 485 l 944 140 m 269 140 l 179 81 l 90 140 l 90 485 l 269 425 l 269 140 m 828 61 l 736 0 l 300 0 l 208 61 l 300 119 l 736 119 l 828 61 m 758 1247 l 621 1047 l 426 1047 l 563 1247 l 758 1247 z "},"Û":{"ha":1032,"x_min":90,"x_max":944,"o":"m 944 515 l 765 585 l 765 885 l 944 1000 l 944 515 m 269 585 l 90 515 l 90 1000 l 269 885 l 269 585 m 944 140 l 854 81 l 765 140 l 765 425 l 944 485 l 944 140 m 269 140 l 179 81 l 90 140 l 90 485 l 269 425 l 269 140 m 828 61 l 736 0 l 300 0 l 208 61 l 300 119 l 736 119 l 828 61 m 928 1068 l 664 1068 l 535 1150 l 590 1288 l 928 1068 m 489 1150 l 360 1068 l 111 1068 l 439 1289 l 489 1150 z "},"Ù":{"ha":1032,"x_min":90,"x_max":944,"o":"m 944 515 l 765 585 l 765 885 l 944 1000 l 944 515 m 269 585 l 90 515 l 90 1000 l 269 885 l 269 585 m 944 140 l 854 81 l 765 140 l 765 425 l 944 485 l 944 140 m 269 140 l 179 81 l 90 140 l 90 485 l 269 425 l 269 140 m 828 61 l 736 0 l 300 0 l 208 61 l 300 119 l 736 119 l 828 61 m 597 1049 l 401 1049 l 265 1249 l 461 1249 l 597 1049 z "},"ı":{"ha":354,"x_min":90,"x_max":269,"o":"m 269 515 l 90 585 l 90 881 l 269 1000 l 269 515 m 269 0 l 90 119 l 90 425 l 269 485 l 269 0 z "},"ˆ":{"ha":813,"x_min":0,"x_max":817,"o":"m 817 1014 l 553 1014 l 424 1096 l 479 1233 l 817 1014 m 378 1096 l 249 1014 l 0 1014 l 328 1235 l 378 1096 z "},"˜":{"ha":653,"x_min":0,"x_max":654,"o":"m 654 1207 l 579 1047 l 458 1196 l 479 1239 l 654 1207 m 536 1031 l 244 1090 l 119 1239 l 421 1176 l 536 1031 m 194 1074 l 174 1031 l 0 1064 l 74 1224 l 194 1074 z "},"¯":{"ha":621,"x_min":13,"x_max":636,"o":"m 636 1222 l 515 1103 l 13 1103 l 133 1222 l 636 1222 z "},"˘":{"ha":521,"x_min":0,"x_max":525,"o":"m 525 1114 l 436 1054 l 346 1114 l 346 1154 l 525 1214 l 525 1114 m 407 1035 l 315 975 l 211 975 l 119 1035 l 211 1094 l 315 1094 l 407 1035 m 179 1114 l 90 1054 l 0 1114 l 0 1214 l 179 1154 l 179 1114 z "},"˚":{"ha":1032,"x_min":258,"x_max":799,"o":"m 799 1158 l 717 1107 l 646 1156 l 646 1272 l 717 1322 l 799 1271 l 799 1158 m 692 1336 l 617 1289 l 440 1289 l 363 1336 l 442 1390 l 615 1390 l 692 1336 m 692 1088 l 629 1049 l 425 1049 l 363 1088 l 454 1147 l 603 1147 l 692 1088 m 415 1156 l 340 1107 l 258 1158 l 258 1269 l 340 1321 l 415 1271 l 415 1156 z "},"¸":{"ha":383,"x_min":82,"x_max":386,"o":"m 386 -35 l 274 -136 l 82 -136 l 196 -35 l 386 -35 z "},"ˇ":{"ha":800,"x_min":0,"x_max":803,"o":"m 803 1222 l 475 1001 l 433 1140 l 563 1222 l 803 1222 m 394 1136 l 344 1003 l 0 1222 l 257 1222 l 394 1136 z "},"Š":{"ha":1032,"x_min":90,"x_max":944,"o":"m 944 1000 l 750 881 l 300 881 l 208 939 l 300 1000 l 944 1000 m 944 140 l 854 81 l 765 140 l 765 425 l 944 485 l 944 140 m 904 500 l 736 444 l 300 444 l 132 500 l 300 565 l 736 565 l 904 500 m 269 585 l 90 515 l 90 860 l 179 919 l 269 860 l 269 585 m 828 61 l 736 0 l 90 0 l 286 119 l 736 119 l 828 61 m 917 1289 l 589 1068 l 547 1207 l 676 1289 l 917 1289 m 508 1203 l 458 1069 l 114 1289 l 371 1289 l 508 1203 z "},"š":{"ha":1032,"x_min":90,"x_max":944,"o":"m 944 1000 l 750 881 l 300 881 l 208 939 l 300 1000 l 944 1000 m 944 140 l 854 81 l 765 140 l 765 425 l 944 485 l 944 140 m 904 500 l 736 444 l 300 444 l 132 500 l 300 565 l 736 565 l 904 500 m 269 585 l 90 515 l 90 860 l 179 919 l 269 860 l 269 585 m 828 61 l 736 0 l 90 0 l 286 119 l 736 119 l 828 61 m 917 1289 l 589 1068 l 547 1207 l 676 1289 l 917 1289 m 508 1203 l 458 1069 l 114 1289 l 371 1289 l 508 1203 z "},"Ž":{"ha":879,"x_min":15,"x_max":867,"o":"m 867 1000 l 546 507 l 429 633 l 671 1000 l 867 1000 m 632 1000 l 554 881 l 228 881 l 49 1000 l 632 1000 m 533 486 l 211 0 l 15 0 l 321 458 l 533 486 m 832 0 l 246 0 l 333 119 l 650 119 l 832 0 m 853 1292 l 525 1071 l 483 1210 l 613 1292 l 853 1292 m 444 1206 l 394 1072 l 50 1292 l 307 1292 l 444 1206 z "},"ž":{"ha":879,"x_min":15,"x_max":867,"o":"m 867 1000 l 546 507 l 429 633 l 671 1000 l 867 1000 m 632 1000 l 554 881 l 228 881 l 49 1000 l 632 1000 m 533 486 l 211 0 l 15 0 l 321 458 l 533 486 m 832 0 l 246 0 l 333 119 l 650 119 l 832 0 m 853 1292 l 525 1071 l 483 1210 l 613 1292 l 853 1292 m 444 1206 l 394 1072 l 50 1292 l 307 1292 l 444 1206 z "},"¦":{"ha":354,"x_min":90,"x_max":269,"o":"m 269 515 l 90 585 l 90 881 l 269 1000 l 269 515 m 269 0 l 90 119 l 90 425 l 269 485 l 269 0 z "},"Ð":{"ha":1249,"x_min":-15,"x_max":1174,"o":"m 1174 515 l 994 585 l 994 860 l 1083 919 l 1174 860 l 1174 515 m 1057 939 l 965 881 l 529 881 l 349 1000 l 965 1000 l 1057 939 m 499 585 l 319 515 l 319 981 l 499 860 l 499 585 m 1174 140 l 1083 81 l 994 140 l 994 425 l 1174 485 l 1174 140 m 499 140 l 319 19 l 319 485 l 499 425 l 499 140 m 1057 61 l 965 0 l 349 0 l 529 119 l 965 119 l 1057 61 m 278 560 l 190 440 l -15 440 l 74 560 l 278 560 z "},"ð":{"ha":1249,"x_min":-15,"x_max":1174,"o":"m 1174 515 l 994 585 l 994 860 l 1083 919 l 1174 860 l 1174 515 m 1057 939 l 965 881 l 529 881 l 349 1000 l 965 1000 l 1057 939 m 499 585 l 319 515 l 319 981 l 499 860 l 499 585 m 1174 140 l 1083 81 l 994 140 l 994 425 l 1174 485 l 1174 140 m 499 140 l 319 19 l 319 485 l 499 425 l 499 140 m 1057 61 l 965 0 l 349 0 l 529 119 l 965 119 l 1057 61 m 278 560 l 190 440 l -15 440 l 74 560 l 278 560 z "},"Ý":{"ha":1032,"x_min":90,"x_max":944,"o":"m 944 515 l 765 585 l 765 881 l 944 1000 l 944 515 m 269 585 l 90 515 l 90 1000 l 269 881 l 269 585 m 904 500 l 736 444 l 300 444 l 132 500 l 300 565 l 736 565 l 904 500 m 613 69 l 517 0 l 429 69 l 429 418 l 613 418 l 613 69 m 756 1247 l 618 1047 l 424 1047 l 560 1247 l 756 1247 z "},"ý":{"ha":1032,"x_min":90,"x_max":944,"o":"m 944 515 l 765 585 l 765 881 l 944 1000 l 944 515 m 269 585 l 90 515 l 90 1000 l 269 881 l 269 585 m 904 500 l 736 444 l 300 444 l 132 500 l 300 565 l 736 565 l 904 500 m 613 69 l 517 0 l 429 69 l 429 418 l 613 418 l 613 69 m 742 1247 l 604 1047 l 410 1047 l 546 1247 l 742 1247 z "},"Þ":{"ha":1389,"x_min":0,"x_max":0,"o":""},"þ":{"ha":1389,"x_min":0,"x_max":0,"o":""},"­":{"ha":621,"x_min":0,"x_max":624,"o":"m 624 425 l 503 306 l 0 306 l 121 425 l 624 425 z "},"×":{"ha":1033,"x_min":207,"x_max":828,"o":"m 758 746 l 828 624 l 663 515 l 542 518 l 542 603 l 758 746 m 492 599 l 496 515 l 363 515 l 207 619 l 275 743 l 492 599 m 496 489 l 492 401 l 275 257 l 208 381 l 367 486 l 496 489 m 821 381 l 753 257 l 538 401 l 538 488 l 663 485 l 821 381 z "},"¹":{"ha":515,"x_min":215,"x_max":304,"o":"m 304 975 l 215 1010 l 215 1157 l 304 1217 l 304 975 m 304 717 l 215 776 l 215 929 l 304 960 l 304 717 z "},"²":{"ha":515,"x_min":46,"x_max":474,"o":"m 474 967 l 383 1001 l 383 1139 l 428 1168 l 474 1139 l 474 967 m 415 1178 l 369 1149 l 46 1149 l 150 1208 l 369 1208 l 415 1178 m 453 958 l 369 931 l 150 931 l 67 958 l 150 992 l 369 992 l 453 958 m 474 708 l 150 708 l 104 739 l 150 768 l 388 768 l 474 708 m 136 779 l 90 749 l 46 779 l 46 951 l 136 921 l 136 779 z "},"³":{"ha":515,"x_min":53,"x_max":461,"o":"m 461 967 l 371 1001 l 371 1139 l 415 1168 l 461 1139 l 461 967 m 403 1178 l 357 1149 l 138 1149 l 53 1208 l 357 1208 l 403 1178 m 461 779 l 415 749 l 371 779 l 371 921 l 461 951 l 461 779 m 440 958 l 357 931 l 138 931 l 54 958 l 138 992 l 357 992 l 440 958 m 403 739 l 357 708 l 53 708 l 138 768 l 357 768 l 403 739 z "},"½":{"ha":1174,"x_min":113,"x_max":1092,"o":"m 1092 267 l 1003 301 l 1003 439 l 1046 468 l 1092 439 l 1092 267 m 1033 478 l 988 449 l 665 449 l 769 508 l 988 508 l 1033 478 m 1071 258 l 988 231 l 769 231 l 686 258 l 769 292 l 988 292 l 1071 258 m 1092 8 l 769 8 l 724 39 l 769 68 l 1007 68 l 1092 8 m 754 79 l 708 49 l 665 79 l 665 251 l 754 221 l 754 79 m 304 975 l 215 1010 l 215 1157 l 304 1217 l 304 975 m 304 717 l 215 776 l 215 929 l 304 960 l 304 717 m 775 1000 l 492 474 l 432 594 l 650 1000 l 775 1000 m 478 444 l 238 0 l 113 0 l 353 444 l 478 444 z "},"¼":{"ha":1299,"x_min":175,"x_max":1229,"o":"m 304 975 l 215 1010 l 215 1157 l 304 1217 l 304 975 m 304 717 l 215 776 l 215 929 l 304 960 l 304 717 m 1229 271 l 1140 306 l 1140 453 l 1229 513 l 1229 271 m 892 306 l 803 271 l 803 513 l 892 453 l 892 306 m 1208 263 l 1125 235 l 907 235 l 824 263 l 907 296 l 1125 296 l 1208 263 m 1229 13 l 1140 72 l 1140 225 l 1229 256 l 1229 13 m 838 1000 l 554 474 l 494 594 l 713 1000 l 838 1000 m 540 444 l 300 0 l 175 0 l 415 444 l 540 444 z "},"¾":{"ha":1299,"x_min":53,"x_max":1229,"o":"m 461 967 l 371 1001 l 371 1139 l 415 1168 l 461 1139 l 461 967 m 403 1178 l 357 1149 l 138 1149 l 53 1208 l 357 1208 l 403 1178 m 461 779 l 415 749 l 371 779 l 371 921 l 461 951 l 461 779 m 440 958 l 357 931 l 138 931 l 54 958 l 138 992 l 357 992 l 440 958 m 403 739 l 357 708 l 53 708 l 138 768 l 357 768 l 403 739 m 1229 271 l 1140 306 l 1140 453 l 1229 513 l 1229 271 m 892 306 l 803 271 l 803 513 l 892 453 l 892 306 m 1208 263 l 1125 235 l 907 235 l 824 263 l 907 296 l 1125 296 l 1208 263 m 1229 13 l 1140 72 l 1140 225 l 1229 256 l 1229 13 m 879 1000 l 596 474 l 536 594 l 754 1000 l 879 1000 m 582 444 l 342 0 l 217 0 l 457 444 l 582 444 z "}}}
